<svg width="17" height="17" viewBox="0 0 17 17" fill="none" xmlns="http://www.w3.org/2000/svg">
    <path fill-rule="evenodd" clip-rule="evenodd" d="M0.827588 5.89176C0.300804 6.36587 0 7.04128 0 7.75V14.1366C0 15.5173 1.11929 16.6366 2.5 16.6366H14.1667C15.5474 16.6366 16.6667 15.5173 16.6667 14.1366V7.75C16.6667 7.04128 16.3659 6.36587 15.8391 5.89176L10.0057 0.641764C9.05498 -0.213922 7.61168 -0.213921 6.66092 0.641765L0.827588 5.89176ZM7.5 9.13659C6.57953 9.13659 5.83333 9.88279 5.83333 10.8033V14.1366C5.83333 14.5968 6.20643 14.9699 6.66667 14.9699H10C10.4602 14.9699 10.8333 14.5968 10.8333 14.1366V10.8033C10.8333 9.88279 10.0871 9.13659 9.16667 9.13659H7.5Z" fill="currentColor"/>
</svg>
