<svg width="15" height="17" viewBox="0 0 15 17" fill="none" xmlns="http://www.w3.org/2000/svg">
    <path fill-rule="evenodd" clip-rule="evenodd" d="M1.66667 5C1.20643 5 0.833333 5.3731 0.833333 5.83333V14.1667C0.833333 15.5474 1.95262 16.6667 3.33333 16.6667H11.6667C13.0474 16.6667 14.1667 15.5474 14.1667 14.1667V5.83333C14.1667 5.3731 13.7936 5 13.3333 5H1.66667ZM5 7.5C5.46024 7.5 5.83333 7.8731 5.83333 8.33333V13.3333C5.83333 13.7936 5.46024 14.1667 5 14.1667C4.53976 14.1667 4.16667 13.7936 4.16667 13.3333V8.33333C4.16667 7.8731 4.53976 7.5 5 7.5ZM10.8333 8.33333C10.8333 7.8731 10.4602 7.5 10 7.5C9.53976 7.5 9.16667 7.8731 9.16667 8.33333V13.3333C9.16667 13.7936 9.53976 14.1667 10 14.1667C10.4602 14.1667 10.8333 13.7936 10.8333 13.3333V8.33333Z" fill="currentColor"/>
    <path d="M0.833333 3.33333C0.373096 3.33333 0 2.96024 0 2.5C0 2.03976 0.373096 1.66667 0.833333 1.66667H3.47559C3.81879 0.695673 4.74482 0 5.83333 0H9.16667C10.2552 0 11.1812 0.695673 11.5244 1.66667H14.1667C14.6269 1.66667 15 2.03976 15 2.5C15 2.96024 14.6269 3.33333 14.1667 3.33333H0.833333Z" fill="currentColor"/>
</svg>
