<svg width="17" height="17" viewBox="0 0 17 17" fill="none" xmlns="http://www.w3.org/2000/svg">
    <path d="M4.58419 3.40431C2.48791 4.48635 1.16094 6.28934 0.501547 7.38887C0.149658 7.97563 0.149658 8.69103 0.501546 9.2778C1.49178 10.929 3.98753 14.1667 8.33339 14.1667C10.5106 14.1667 12.2235 13.3541 13.5153 12.3354L10.5902 9.41029C10.1878 10.2519 9.3285 10.8333 8.33339 10.8333C6.95268 10.8333 5.83339 9.71405 5.83339 8.33333C5.83339 7.33822 6.41479 6.47891 7.25643 6.07655L4.58419 3.40431Z" fill="currentColor"/>
    <path d="M14.7352 11.1983C15.3746 10.5011 15.8474 9.80772 16.1652 9.2778C16.5171 8.69103 16.5171 7.97563 16.1652 7.38887C15.175 5.73767 12.6792 2.5 8.33339 2.5C7.60022 2.5 6.9197 2.59215 6.29019 2.75328L14.7352 11.1983Z" fill="currentColor"/>
    <path fill-rule="evenodd" clip-rule="evenodd" d="M0.244078 0.244078C0.569515 -0.0813592 1.09715 -0.0813592 1.42259 0.244078L16.4226 15.2441C16.748 15.5695 16.748 16.0972 16.4226 16.4226C16.0972 16.748 15.5695 16.748 15.2441 16.4226L0.244078 1.42259C-0.0813592 1.09715 -0.0813592 0.569515 0.244078 0.244078Z" fill="currentColor"/>
</svg>
