<svg width="13" height="12" viewBox="0 0 13 12" fill="none" xmlns="http://www.w3.org/2000/svg">
    <path d="M10.2289 10.253C10.6706 10.253 11.0285 10.6111 11.0287 11.0528C11.0287 11.4946 10.6708 11.8536 10.2289 11.8536H2.22893C1.78721 11.8535 1.42912 11.4946 1.42912 11.0528C1.42932 10.6112 1.78733 10.2531 2.22893 10.253H10.2289ZM5.86662 0.230535C6.01029 -0.0769035 6.44745 -0.0767864 6.59123 0.230535L7.851 2.93268C8.05287 3.36512 8.58638 3.52546 8.99358 3.27643L11.849 1.53034C12.1466 1.34851 12.518 1.60823 12.4496 1.95026L11.2865 7.76667C11.137 8.51455 10.4799 9.0528 9.71721 9.0528H2.74065C1.97804 9.05271 1.32185 8.51448 1.17229 7.76667L0.00822405 1.95026C-0.0601942 1.60817 0.312166 1.34832 0.609787 1.53034L3.46526 3.27643C3.87251 3.5255 4.40603 3.36527 4.60783 2.93268L5.86662 0.230535Z" fill="currentColor"/>
</svg>
