<svg width="15" height="15" viewBox="0 0 15 15" fill="none" xmlns="http://www.w3.org/2000/svg">
    <path d="M1.80402 4.27241C1.90606 4.27274 2.00664 4.24808 2.09695 4.20058C2.18727 4.15308 2.26458 4.08419 2.32213 3.99992C2.78676 3.31216 3.38353 2.72367 4.07772 2.2687C4.14634 2.22356 4.20539 2.16535 4.25151 2.09739C4.29762 2.02942 4.3299 1.95304 4.3465 1.87261C4.3631 1.79217 4.36369 1.70925 4.34824 1.62859C4.3328 1.54792 4.30161 1.47109 4.25647 1.40247C4.21133 1.33386 4.15312 1.27481 4.08515 1.22869C4.01719 1.18257 3.94081 1.15029 3.86037 1.1337C3.77994 1.1171 3.69702 1.11651 3.61635 1.13195C3.53569 1.1474 3.45885 1.17858 3.39024 1.22372C2.55897 1.76861 1.84431 2.47329 1.28778 3.29681C1.22415 3.39071 1.18727 3.50015 1.18109 3.61341C1.17492 3.72667 1.19969 3.83948 1.25274 3.93974C1.30579 4.03999 1.38512 4.12393 1.48224 4.18253C1.57936 4.24114 1.69059 4.27221 1.80402 4.27241Z" fill="currentColor"/>
    <path d="M1.25028 7.49985C1.25017 7.08669 1.29057 6.67452 1.3709 6.26925C1.3883 6.18827 1.38942 6.10464 1.37421 6.02322C1.359 5.94181 1.32776 5.86423 1.2823 5.79499C1.23684 5.72575 1.17808 5.66624 1.10942 5.61992C1.04076 5.57359 0.963581 5.54137 0.882362 5.52514C0.801144 5.5089 0.717508 5.50897 0.636317 5.52534C0.555126 5.54172 0.477999 5.57406 0.409418 5.6205C0.340838 5.66694 0.282172 5.72655 0.236831 5.79586C0.19149 5.86518 0.160378 5.94281 0.145304 6.02425C-0.0484346 6.9997 -0.0484346 8.00374 0.145304 8.97919C0.174119 9.12036 0.250824 9.24724 0.362436 9.33835C0.474049 9.42946 0.613713 9.47921 0.757791 9.47918C0.799746 9.47935 0.841616 9.47537 0.882789 9.46731C1.04531 9.43473 1.18824 9.33893 1.28013 9.20098C1.37202 9.06303 1.40535 8.89422 1.37278 8.7317C1.29168 8.32609 1.25065 7.91348 1.25028 7.49985Z" fill="currentColor"/>
    <path d="M4.08022 12.7322C3.38589 12.2783 2.78888 11.6906 2.32401 11.0035C2.27792 10.9356 2.21891 10.8774 2.15032 10.8322C2.08174 10.7871 2.00494 10.7559 1.92429 10.7404C1.76143 10.7092 1.59284 10.7439 1.45559 10.837C1.31834 10.93 1.22369 11.0738 1.19245 11.2367C1.16122 11.3995 1.19596 11.5681 1.28903 11.7054C1.84669 12.5289 2.56267 13.2332 3.39524 13.7772C3.53381 13.8684 3.70292 13.9008 3.86537 13.8672C4.02782 13.8337 4.1703 13.737 4.26147 13.5985C4.35264 13.4599 4.38502 13.2908 4.3515 13.1283C4.31798 12.9659 4.2213 12.8234 4.08272 12.7322H4.08022Z" fill="currentColor"/>
    <path d="M7.50015 0C7.04503 0.000775312 6.59091 0.0426107 6.14331 0.124997C5.98968 0.152814 5.85203 0.237121 5.75744 0.36133C5.66285 0.485538 5.61817 0.640651 5.6322 0.796144C5.64623 0.951638 5.71795 1.09625 5.83324 1.20152C5.94853 1.30679 6.09905 1.3651 6.25518 1.36497C6.29309 1.36469 6.33093 1.36135 6.3683 1.35497C6.74163 1.28578 7.12047 1.25063 7.50015 1.24997V13.7497C7.12054 13.7499 6.74171 13.7156 6.3683 13.6472C6.2052 13.6174 6.03692 13.6536 5.90049 13.7478C5.76406 13.842 5.67065 13.9866 5.64082 14.1497C5.61098 14.3128 5.64716 14.4811 5.74139 14.6175C5.83563 14.754 5.9802 14.8474 6.14331 14.8772C7.22495 15.075 8.33684 15.0328 9.40037 14.7536C10.4639 14.4743 11.4531 13.9647 12.298 13.261C13.1428 12.5572 13.8228 11.6764 14.2897 10.6809C14.7566 9.68539 14.9991 8.59943 15 7.49985C14.9978 5.51142 14.207 3.60506 12.801 2.19903C11.3949 0.793001 9.48858 0.00215063 7.50015 0Z" fill="currentColor"/>
</svg>
