<svg width="17" height="17" viewBox="0 0 17 17" fill="none" xmlns="http://www.w3.org/2000/svg">
    <path d="M0 9.16667C0 8.70643 0.373096 8.33333 0.833333 8.33333H15.8333C16.2936 8.33333 16.6667 8.70643 16.6667 9.16667V14.1667C16.6667 15.5474 15.5474 16.6667 14.1667 16.6667H2.5C1.11929 16.6667 0 15.5474 0 14.1667V9.16667Z" fill="currentColor"/>
    <path d="M4.16667 0C4.6269 0 5 0.373096 5 0.833333V1.66667H11.6667V0.833333C11.6667 0.373096 12.0398 0 12.5 0C12.9602 0 13.3333 0.373096 13.3333 0.833333V1.66667H14.1667C15.5474 1.66667 16.6667 2.78595 16.6667 4.16667V5.83333C16.6667 6.29357 16.2936 6.66667 15.8333 6.66667H0.833333C0.373096 6.66667 0 6.29357 0 5.83333V4.16667C0 2.78595 1.11929 1.66667 2.5 1.66667H3.33333V0.833333C3.33333 0.373096 3.70643 0 4.16667 0Z" fill="currentColor"/>
</svg>
