<svg width="15" height="10" viewBox="0 0 15 10" fill="none" xmlns="http://www.w3.org/2000/svg">
    <path fill-rule="evenodd" clip-rule="evenodd" d="M3.33333 0.833333C3.33333 0.373096 3.70643 0 4.16667 0H14.1667C14.6269 0 15 0.373096 15 0.833333C15 1.29357 14.6269 1.66667 14.1667 1.66667H4.16667C3.70643 1.66667 3.33333 1.29357 3.33333 0.833333Z" fill="currentColor"/>
    <path fill-rule="evenodd" clip-rule="evenodd" d="M3.33333 5C3.33333 4.53976 3.70643 4.16667 4.16667 4.16667H14.1667C14.6269 4.16667 15 4.53976 15 5C15 5.46024 14.6269 5.83333 14.1667 5.83333H4.16667C3.70643 5.83333 3.33333 5.46024 3.33333 5Z" fill="currentColor"/>
    <path fill-rule="evenodd" clip-rule="evenodd" d="M3.33333 9.16667C3.33333 8.70643 3.70643 8.33333 4.16667 8.33333H14.1667C14.6269 8.33333 15 8.70643 15 9.16667C15 9.6269 14.6269 10 14.1667 10H4.16667C3.70643 10 3.33333 9.6269 3.33333 9.16667Z" fill="currentColor"/>
    <path d="M1.66667 0.833333C1.66667 1.29357 1.29357 1.66667 0.833333 1.66667C0.373096 1.66667 0 1.29357 0 0.833333C0 0.373096 0.373096 0 0.833333 0C1.29357 0 1.66667 0.373096 1.66667 0.833333Z" fill="currentColor"/>
    <path d="M1.66667 5C1.66667 5.46024 1.29357 5.83333 0.833333 5.83333C0.373096 5.83333 0 5.46024 0 5C0 4.53976 0.373096 4.16667 0.833333 4.16667C1.29357 4.16667 1.66667 4.53976 1.66667 5Z" fill="currentColor"/>
    <path d="M1.66667 9.16667C1.66667 9.6269 1.29357 10 0.833333 10C0.373096 10 0 9.6269 0 9.16667C0 8.70643 0.373096 8.33333 0.833333 8.33333C1.29357 8.33333 1.66667 8.70643 1.66667 9.16667Z" fill="currentColor"/>
</svg>
