<svg width="16" height="18" viewBox="0 0 16 18" fill="none" xmlns="http://www.w3.org/2000/svg">
    <path fill-rule="evenodd" clip-rule="evenodd" d="M5.69951 2.00322C5.55522 2.43608 5.22588 2.77636 4.82724 2.99832C4.76524 3.03285 4.70386 3.06835 4.64311 3.10482C4.25145 3.33994 3.79158 3.45538 3.34403 3.3638L2.39256 3.1691C1.72483 3.03246 1.04459 3.33842 0.703806 3.92867L0.21216 4.78023C-0.128621 5.37048 -0.053471 6.11257 0.398726 6.62252L1.044 7.3502C1.34637 7.69119 1.47705 8.14593 1.46983 8.60161C1.4687 8.67314 1.4687 8.74473 1.46983 8.81625C1.47705 9.27193 1.34637 9.72666 1.044 10.0676L0.398727 10.7953C-0.0534702 11.3053 -0.128621 12.0474 0.21216 12.6376L0.703806 13.4892C1.04459 14.0794 1.72483 14.3854 2.39256 14.2488L3.34397 14.0541C3.79152 13.9625 4.2514 14.0779 4.64306 14.3131C4.70382 14.3495 4.76522 14.385 4.82724 14.4196C5.22588 14.6415 5.55522 14.9818 5.69951 15.4147L6.00634 16.3352C6.22187 16.9818 6.82697 17.4179 7.50853 17.4179H8.49182C9.17339 17.4179 9.77848 16.9818 9.99401 16.3352L10.3008 15.4147C10.4451 14.9818 10.7745 14.6415 11.1731 14.4196C11.2351 14.385 11.2965 14.3495 11.3573 14.3131C11.7489 14.0779 12.2088 13.9625 12.6564 14.0541L13.6078 14.2488C14.2755 14.3854 14.9557 14.0794 15.2965 13.4892L15.7882 12.6376C16.1289 12.0474 16.0538 11.3053 15.6016 10.7953L14.9564 10.0677C14.654 9.72671 14.5233 9.27197 14.5305 8.81629C14.5317 8.74474 14.5317 8.67313 14.5305 8.60158C14.5233 8.14589 14.654 7.69115 14.9564 7.35016L15.6016 6.62252C16.0538 6.11257 16.1289 5.37048 15.7882 4.78023L15.2965 3.92867C14.9557 3.33842 14.2755 3.03246 13.6078 3.1691L12.6563 3.3638C12.2088 3.45538 11.7489 3.33994 11.3572 3.10481C11.2965 3.06835 11.2351 3.03285 11.1731 2.99832C10.7745 2.77636 10.4451 2.43608 10.3008 2.00322L9.99401 1.08272C9.77848 0.436128 9.17339 0 8.49182 0H7.50853C6.82697 0 6.22187 0.436129 6.00634 1.08272L5.69951 2.00322ZM10.3754 8.70895C10.3754 10.0207 9.31199 11.0841 8.00023 11.0841C6.68846 11.0841 5.62506 10.0207 5.62506 8.70895C5.62506 7.39718 6.68846 6.33378 8.00023 6.33378C9.31199 6.33378 10.3754 7.39718 10.3754 8.70895Z" fill="currentColor"/>
</svg>
