<svg width="18" height="15" viewBox="0 0 18 15" fill="none" xmlns="http://www.w3.org/2000/svg">
    <path d="M14.6543 0.00390625C16.2394 0.0842143 17.5 1.39489 17.5 3V12L17.4961 12.1543C17.4184 13.6883 16.1883 14.9184 14.6543 14.9961L14.5 15H3L2.8457 14.9961C1.31166 14.9184 0.0816253 13.6883 0.00390625 12.1543L0 12V3C0 1.39489 1.26055 0.0842144 2.8457 0.00390625L3 0H14.5L14.6543 0.00390625ZM3 1.5C2.17157 1.5 1.5 2.17157 1.5 3V12C1.5 12.8284 2.17157 13.5 3 13.5H14.5C15.3284 13.5 16 12.8284 16 12V3C16 2.17157 15.3284 1.5 14.5 1.5H3ZM13 2.5C14.1046 2.5 15 3.39543 15 4.5V10.5C15 11.6046 14.1046 12.5 13 12.5H9.5C8.39543 12.5 7.5 11.6046 7.5 10.5V4.5C7.5 3.39543 8.39543 2.5 9.5 2.5H13Z" fill="currentColor"/>
</svg>
