<svg width="17" height="14" viewBox="0 0 17 14" fill="none" xmlns="http://www.w3.org/2000/svg">
    <path d="M0.381321 1.17228C0.270795 1.34827 0.342953 1.57353 0.519658 1.68292L7.89462 6.24837C8.16337 6.41474 8.50312 6.41474 8.77187 6.24837L16.147 1.68284C16.3237 1.57345 16.3958 1.34818 16.2853 1.17218C15.8431 0.468055 15.0595 0 14.1667 0H2.5C1.60711 0 0.823544 0.468095 0.381321 1.17228Z" fill="currentColor"/>
    <path d="M16.6667 4.06927C16.6667 3.74281 16.3083 3.54316 16.0307 3.71499L9.64913 7.66548C8.84287 8.16459 7.82362 8.16459 7.01736 7.66548L0.63598 3.7151C0.358401 3.54327 0 3.74292 0 4.06938V10.8333C0 12.214 1.11929 13.3333 2.5 13.3333H14.1667C15.5474 13.3333 16.6667 12.214 16.6667 10.8333V4.06927Z" fill="currentColor"/>
</svg>
