<svg width="14" height="15" viewBox="0 0 14 15" fill="none" xmlns="http://www.w3.org/2000/svg">
    <path d="M13.3333 2.5C13.3333 3.88071 12.214 5 10.8333 5C10.2283 5 9.67338 4.78504 9.24092 4.42732L4.95033 7.00167C4.9829 7.16271 5 7.32936 5 7.5C5 7.67064 4.9829 7.83729 4.95033 7.99833L9.24092 10.5727C9.67338 10.215 10.2283 10 10.8333 10C12.214 10 13.3333 11.1193 13.3333 12.5C13.3333 13.8807 12.214 15 10.8333 15C9.45262 15 8.33333 13.8807 8.33333 12.5C8.33333 12.3293 8.35044 12.1627 8.38302 12.0016L4.09248 9.42727C3.66 9.78502 3.10511 10 2.5 10C1.11929 10 0 8.88071 0 7.5C0 6.11929 1.11929 5 2.5 5C3.10511 5 3.66 5.21498 4.09248 5.57273L8.38302 2.99841C8.35044 2.83735 8.33333 2.67067 8.33333 2.5C8.33333 1.11929 9.45262 0 10.8333 0C12.214 0 13.3333 1.11929 13.3333 2.5Z" fill="currentColor" stroke="currentColor"/>
</svg>
