<svg width="15" height="17" viewBox="0 0 15 17" fill="none" xmlns="http://www.w3.org/2000/svg">
    <path d="M7.46442 0C8.83859 0 9.95257 1.11929 9.95257 2.5V7.5H5.80566C5.34761 7.5 4.97628 7.8731 4.97628 8.33333C4.97628 8.79357 5.34761 9.16667 5.80566 9.16667H9.95257V14.1667C9.95257 15.5474 8.83859 16.6667 7.46442 16.6667H2.48814C1.11398 16.6667 0 15.5474 0 14.1667V2.5C0 1.11929 1.11398 0 2.48814 0H7.46442Z" fill="currentColor"/>
    <path d="M9.95257 9.16667L12.5119 9.16667L11.0249 10.6607C10.701 10.9862 10.701 11.5138 11.0249 11.8393C11.3488 12.1647 11.8739 12.1647 12.1978 11.8393L14.5142 9.51184C15.1619 8.86097 15.1619 7.8057 14.5142 7.15482L12.1978 4.82741C11.8739 4.50197 11.3488 4.50197 11.0249 4.82741C10.701 5.15285 10.701 5.68049 11.0249 6.00592L12.5119 7.5L9.95257 7.5V9.16667Z" fill="currentColor"/>
</svg>
