<svg width="16" height="12" viewBox="0 0 16 12" fill="none" xmlns="http://www.w3.org/2000/svg">
    <path d="M15.6136 6.43311C15.8278 6.28387 15.9349 6.20926 15.9742 6.12046C16.0086 6.04253 16.0086 5.95729 15.9742 5.87935C15.9349 5.79056 15.8278 5.71595 15.6136 5.56671L9.15898 0.38859C8.79019 0.131701 8.60579 0.0032569 8.44968 0.000109945C8.314 -0.00262502 8.1844 0.0458157 8.09866 0.131312C8 0.229687 8 0.427053 8 0.821785V3.42857C6.12662 3.69492 3.43278 4.92282 2.15862 6.08112C0.769495 7.34393 0.00108352 8.97816 0 10.672V11.1085C0.920894 10.2069 2.07068 9.4778 3.37062 8.97101C4.5167 8.5242 6.01662 8.2263 8 8.57143V11.1782C8 11.5729 8 11.7703 8.09866 11.8687C8.1844 11.9542 8.314 12.0026 8.44968 11.9999C8.60579 11.9967 8.79019 11.8683 9.15898 11.6114L15.6136 6.43311Z" fill="currentColor"/>
</svg>
