<svg width="40" height="40" viewBox="0 0 40 40" fill="none" xmlns="http://www.w3.org/2000/svg">
    <g clip-path="url(#clip0_2146_2224)">
        <rect width="40" height="40" rx="8" fill="#333333"/>
        <path d="M20.0457 32.8556C25.3209 32.8556 29.5973 26.929 29.5973 19.6183C29.5973 12.3076 25.3209 6.3811 20.0457 6.3811C14.7705 6.3811 10.4941 12.3076 10.4941 19.6183C10.4941 26.929 14.7705 32.8556 20.0457 32.8556Z" fill="#666563"/>
        <path d="M19.8963 32.0084C11.9011 32.0084 4.75361 33.9257 0 36.9374C4.44727 43.2218 11.7657 47.3283 20.0472 47.3283C28.2703 47.3283 35.5436 43.2798 40 37.0705C35.2479 33.9822 28.0087 32.0084 19.8963 32.0084Z" fill="#666563"/>
        <path d="M21.4997 38.3621H18.5906C16.5834 38.3621 14.9414 36.7191 14.9414 34.7108V26.4113C14.9414 24.403 16.5834 22.76 18.5906 22.76H21.4997C23.5069 22.76 25.1489 24.403 25.1489 26.4113V34.7108C25.1489 36.7191 23.5069 38.3621 21.4997 38.3621Z" fill="#666563"/>
        <path d="M12.0031 20.3703C12.289 22.4924 11.8181 24.3326 10.9514 24.4802C10.0847 24.6278 9.15012 23.0269 8.86388 20.9048C8.57801 18.7827 9.0489 16.9424 9.91561 16.7948C10.7823 16.6473 11.7173 18.2481 12.0031 20.3703Z" fill="#666563"/>
        <path d="M28.0895 20.3703C27.8036 22.4924 28.2745 24.3326 29.1412 24.4802C30.0079 24.6278 30.9425 23.0269 31.2287 20.9048C31.5146 18.7827 31.0437 16.9424 30.177 16.7948C29.3103 16.6473 28.3753 18.2481 28.0895 20.3703Z" fill="#666563"/>
        <path d="M10.8282 19.0975C10.5071 16.9784 10.186 14.8593 9.86446 12.7406C9.74768 11.9713 9.63507 11.1606 9.91601 10.4349C10.1966 9.70919 11.0201 9.13143 11.7484 9.40381C11.4568 7.92964 13.0867 6.84089 14.507 6.3519C16.8868 5.53211 19.4388 5.11482 21.9346 5.43765C24.4309 5.76048 26.868 6.86516 28.5506 8.73804C29.0832 9.33097 29.542 10.0043 29.7956 10.7596C30.284 12.2137 29.9731 13.8005 29.6584 15.3016C29.4082 16.4943 29.1583 17.687 28.9081 18.8797C28.8512 19.1521 28.7871 19.4378 28.6014 19.6449C28.3053 19.9749 27.8059 19.9996 27.3627 20.0003C22.6266 20.0106 17.89 20.0208 13.1538 20.0311C12.2632 20.033 11.1008 19.8133 10.9833 18.9302" fill="#666563"/>
    </g>
    <defs>
        <clipPath id="clip0_2146_2224">
            <rect width="40" height="40" rx="8" fill="white"/>
        </clipPath>
    </defs>
</svg>
