<svg width="52" height="52" viewBox="0 0 52 52" fill="none" xmlns="http://www.w3.org/2000/svg">
    <g clip-path="url(#clip0_6586_27057)">
        <rect width="52" height="52" rx="8" fill="#E0E0E0"/>
        <path d="M26.0596 42.7118C32.9174 42.7118 38.4767 35.0073 38.4767 25.5034C38.4767 15.9994 32.9174 8.29498 26.0596 8.29498C19.2019 8.29498 13.6426 15.9994 13.6426 25.5034C13.6426 35.0073 19.2019 42.7118 26.0596 42.7118Z" fill="#A4A4A4"/>
        <path d="M25.8652 41.6107C15.4714 41.6107 6.17969 44.1031 0 48.0183C5.78145 56.188 15.2955 61.5265 26.0614 61.5265C36.7514 61.5265 46.2067 56.2635 52 48.1914C45.8223 44.1766 36.4113 41.6107 25.8652 41.6107Z" fill="#A4A4A4"/>
        <path d="M27.9496 49.8703H24.1678C21.5585 49.8703 19.4238 47.7345 19.4238 45.1237V34.3343C19.4238 31.7235 21.5585 29.5876 24.1678 29.5876H27.9496C30.5589 29.5876 32.6936 31.7235 32.6936 34.3343V45.1237C32.6936 47.7345 30.5589 49.8703 27.9496 49.8703Z" fill="#A4A4A4"/>
        <path d="M15.6043 26.4809C15.9759 29.2396 15.3637 31.6319 14.237 31.8238C13.1103 32.0156 11.8954 29.9345 11.5232 27.1757C11.1516 24.417 11.7638 22.0247 12.8905 21.8328C14.0172 21.641 15.2326 23.7221 15.6043 26.4809Z" fill="#A4A4A4"/>
        <path d="M36.5159 26.4809C36.1443 29.2396 36.7564 31.6319 37.8831 31.8238C39.0099 32.0156 40.2248 29.9345 40.5969 27.1757C40.9686 24.417 40.3564 22.0247 39.2297 21.8328C38.103 21.641 36.8875 23.7221 36.5159 26.4809Z" fill="#A4A4A4"/>
        <path d="M14.0765 24.8265C13.659 22.0716 13.2416 19.3168 12.8236 16.5625C12.6718 15.5624 12.5254 14.5085 12.8906 13.5651C13.2554 12.6217 14.3259 11.8706 15.2727 12.2247C14.8937 10.3083 17.0126 8.89288 18.8589 8.2572C21.9527 7.19148 25.2702 6.649 28.5148 7.06868C31.7599 7.48836 34.9281 8.92444 37.1155 11.3592C37.808 12.13 38.4044 13.0054 38.7341 13.9872C39.369 15.8775 38.9648 17.9404 38.5557 19.8919C38.2304 21.4424 37.9056 22.9929 37.5803 24.5434C37.5064 24.8975 37.4231 25.2688 37.1816 25.5381C36.7966 25.9671 36.1475 25.9992 35.5713 26.0002C29.4143 26.0135 23.2568 26.0268 17.0998 26.0401C15.942 26.0426 14.4309 25.757 14.2781 24.609" fill="#A4A4A4"/>
    </g>
    <defs>
        <clipPath id="clip0_6586_27057">
            <rect width="52" height="52" rx="8" fill="white"/>
        </clipPath>
    </defs>
</svg>
