<svg width="14" height="17" viewBox="0 0 14 17" fill="none" xmlns="http://www.w3.org/2000/svg">
    <path fill-rule="evenodd" clip-rule="evenodd" d="M2.5 0C1.11929 0 0 1.11929 0 2.5V14.1667C0 15.8834 1.95992 16.8634 3.33333 15.8333L6.41667 13.5208C6.56481 13.4097 6.76852 13.4097 6.91667 13.5208L10 15.8333C11.3734 16.8634 13.3333 15.8834 13.3333 14.1667V2.5C13.3333 1.11929 12.214 0 10.8333 0H2.5ZM4.16667 3.33333C3.70643 3.33333 3.33333 3.70643 3.33333 4.16667C3.33333 4.6269 3.70643 5 4.16667 5H9.16667C9.6269 5 10 4.6269 10 4.16667C10 3.70643 9.6269 3.33333 9.16667 3.33333H4.16667Z" fill="#666563"/>
</svg>
