<svg width="15" height="17" viewBox="0 0 15 17" fill="none" xmlns="http://www.w3.org/2000/svg">
    <path fill-rule="evenodd" clip-rule="evenodd" d="M0 2.5C0 1.11929 1.11929 0 2.5 0H10.2145C10.8775 0 11.5134 0.263392 11.9822 0.732233L14.2678 3.01777C14.7366 3.48661 15 4.12249 15 4.78553V14.1667C15 15.5474 13.8807 16.6667 12.5 16.6667H2.5C1.11929 16.6667 0 15.5474 0 14.1667V2.5ZM10 3.33334V1.83927C10 1.46806 10.4488 1.28215 10.7113 1.54464L13.4554 4.28872C13.7179 4.5512 13.532 5.00001 13.1607 5.00001H11.6667C10.7462 5.00001 10 4.25382 10 3.33334ZM7.5 5.83333C7.96024 5.83333 8.33333 6.20643 8.33333 6.66667V8.33333H10C10.4602 8.33333 10.8333 8.70643 10.8333 9.16667C10.8333 9.6269 10.4602 10 10 10H8.33333L8.33333 11.6667C8.33333 12.1269 7.96024 12.5 7.5 12.5C7.03976 12.5 6.66667 12.1269 6.66667 11.6667L6.66667 10H5C4.53976 10 4.16667 9.6269 4.16667 9.16667C4.16667 8.70643 4.53976 8.33333 5 8.33333H6.66667V6.66667C6.66667 6.20643 7.03976 5.83333 7.5 5.83333Z" fill="#666563"/>
</svg>
