<svg width="15" height="17" viewBox="0 0 15 17" fill="none" xmlns="http://www.w3.org/2000/svg">
    <path d="M10.2148 0C10.8777 9.99985e-05 11.5137 0.262778 11.9824 0.731445L14.2676 3.01758C14.7364 3.48641 15 4.12213 15 4.78516V14.166C15 15.5467 13.8807 16.666 12.5 16.666H2.5C1.11929 16.666 0 15.5467 0 14.166V2.5C0 1.11929 1.11929 0 2.5 0H10.2148ZM10.5889 7.07715C10.2635 6.75192 9.73654 6.75194 9.41113 7.07715L6.66699 9.82129L5.58887 8.74414C5.26344 8.41871 4.73657 8.41873 4.41113 8.74414C4.0857 9.06958 4.0857 9.59644 4.41113 9.92188L5.60645 11.1172C6.19224 11.7029 7.14178 11.703 7.72754 11.1172L10.5889 8.25586C10.9143 7.93042 10.9143 7.40259 10.5889 7.07715ZM10.7109 1.54395C10.4484 1.28201 10.0001 1.46787 10 1.83887V3.33301C10 4.25348 10.7465 5 11.667 5H13.1611C13.5321 4.99969 13.7175 4.55048 13.4551 4.28809L10.7109 1.54395Z" fill="#666563"/>
</svg>
