<svg width="17" height="15" viewBox="0 0 17 15" fill="none" xmlns="http://www.w3.org/2000/svg">
    <path fill-rule="evenodd" clip-rule="evenodd" d="M16.6667 12.5C16.6667 13.8807 15.5474 15 14.1667 15H2.5C1.11929 15 0 13.8807 0 12.5V2.5C0 1.11929 1.11929 0 2.5 0H4.7978C5.46084 0 6.09673 0.263392 6.56557 0.732233L7.5 1.66667H14.1667C15.5474 1.66667 16.6667 2.78595 16.6667 4.16667V12.5ZM9.33325 5.5C9.79349 5.5 10.1666 5.8731 10.1666 6.33333C10.1666 6.79357 9.79349 7.16667 9.33325 7.16667C6.18252 7.16667 7.31122 7.16667 4.66659 7.16667C4.20635 7.16667 3.83325 6.79357 3.83325 6.33333C3.83325 5.8731 4.20635 5.5 4.66659 5.5C7.31122 5.5 6.18252 5.5 9.33325 5.5Z" fill="#666563"/>
    <path d="M11.4999 9.66667C11.4999 9.20643 11.1268 8.83333 10.6666 8.83333H4.66658C4.20635 8.83333 3.83325 9.20643 3.83325 9.66667C3.83325 10.1269 4.20635 10.5 4.66658 10.5H10.6666C11.1268 10.5 11.4999 10.1269 11.4999 9.66667Z" fill="white"/>
</svg>
