<svg width="15" height="18" viewBox="0 0 15 18" fill="none" xmlns="http://www.w3.org/2000/svg">
    <path fill-rule="evenodd" clip-rule="evenodd" d="M7.5 0C8.42048 0 9.16667 0.746192 9.16667 1.66667H12.5C13.8807 1.66667 15 2.78595 15 4.16667V15C15 16.3807 13.8807 17.5 12.5 17.5H2.5C1.11929 17.5 0 16.3807 0 15V4.16667C0 2.78595 1.11929 1.66667 2.5 1.66667H5.83333C5.83333 0.746192 6.57953 0 7.5 0ZM3.33333 8.33333C3.33333 7.8731 3.70643 7.5 4.16667 7.5H10.8333C11.2936 7.5 11.6667 7.8731 11.6667 8.33333C11.6667 8.79357 11.2936 9.16667 10.8333 9.16667H4.16667C3.70643 9.16667 3.33333 8.79357 3.33333 8.33333ZM4.16667 10.8333C3.70643 10.8333 3.33333 11.2064 3.33333 11.6667C3.33333 12.1269 3.70643 12.5 4.16667 12.5H7.5C7.96024 12.5 8.33333 12.1269 8.33333 11.6667C8.33333 11.2064 7.96024 10.8333 7.5 10.8333H4.16667Z" fill="#666563"/>
</svg>
