<svg width="17" height="15" viewBox="0 0 17 15" fill="none" xmlns="http://www.w3.org/2000/svg">
    <path fill-rule="evenodd" clip-rule="evenodd" d="M16.6667 12.5C16.6667 13.8807 15.5474 15 14.1667 15H2.5C1.11929 15 0 13.8807 0 12.5V2.5C0 1.11929 1.11929 0 2.5 0H4.7978C5.46084 0 6.09673 0.263392 6.56557 0.732233L7.5 1.66667H14.1667C15.5474 1.66667 16.6667 2.78595 16.6667 4.16667V12.5ZM10.8333 7.5C11.2936 7.5 11.6667 7.8731 11.6667 8.33333C11.6667 8.79357 11.2936 9.16667 10.8333 9.16667C7.6826 9.16667 8.47797 9.16667 5.83333 9.16667C5.3731 9.16667 5 8.79357 5 8.33333C5 7.8731 5.3731 7.5 5.83333 7.5C8.47797 7.5 7.6826 7.5 10.8333 7.5Z" fill="#666563"/>
</svg>
