<svg width="15" height="17" viewBox="0 0 15 17" fill="none" xmlns="http://www.w3.org/2000/svg">
    <path fill-rule="evenodd" clip-rule="evenodd" d="M3.33333 2.5C3.33333 1.11929 4.45262 0 5.83333 0H10.2145C10.8775 0 11.5134 0.263392 11.9822 0.732233L14.2678 3.01777C14.7366 3.48661 15 4.12249 15 4.78553V10.8333C15 12.214 13.8807 13.3333 12.5 13.3333H11.6667V14.1667C11.6667 15.5474 10.5474 16.6667 9.16667 16.6667H2.5C1.11929 16.6667 0 15.5474 0 14.1667V5.83333C0 4.45262 1.11929 3.33333 2.5 3.33333H3.33333V2.5ZM3.33333 10.8333V5H2.5C2.03976 5 1.66667 5.3731 1.66667 5.83333V14.1667C1.66667 14.6269 2.03976 15 2.5 15H9.16667C9.6269 15 10 14.6269 10 14.1667V13.3333H5.83333C4.45262 13.3333 3.33333 12.214 3.33333 10.8333ZM10 1.83927V3.33334C10 4.25382 10.7462 5.00001 11.6667 5.00001H13.1607C13.532 5.00001 13.7179 4.5512 13.4554 4.28872L10.7113 1.54464C10.4488 1.28215 10 1.46806 10 1.83927Z" fill="#666563"/>
</svg>
