<svg width="17" height="15" viewBox="0 0 17 15" fill="none" xmlns="http://www.w3.org/2000/svg">
    <path fill-rule="evenodd" clip-rule="evenodd" d="M2.5 0C1.11929 0 0 1.11929 0 2.5V10.8333C0 12.214 1.11929 13.3333 2.5 13.3333H5.02194C5.55936 13.3333 6.09325 13.42 6.60308 13.5899L8.06981 14.0788C8.24087 14.1358 8.4258 14.1358 8.59686 14.0788L10.0636 13.5899C10.5734 13.42 11.1073 13.3333 11.6447 13.3333H14.1667C15.5474 13.3333 16.6667 12.214 16.6667 10.8333V2.5C16.6667 1.11929 15.5474 0 14.1667 0H10.8333C9.92264 0 9.09726 0.365205 8.49563 0.957148C8.40629 1.04505 8.26037 1.04505 8.17104 0.957148C7.56941 0.365205 6.74402 0 5.83333 0H2.5ZM9.16667 12.1321L9.53654 12.0088C10.2163 11.7822 10.9282 11.6667 11.6447 11.6667H14.1667C14.6269 11.6667 15 11.2936 15 10.8333V2.5C15 2.03976 14.6269 1.66667 14.1667 1.66667H10.8333C9.91286 1.66667 9.16667 2.41286 9.16667 3.33333V12.1321Z" fill="#666563"/>
</svg>
