<svg width="15" height="17" viewBox="0 0 15 17" fill="none" xmlns="http://www.w3.org/2000/svg">
    <path d="M14.1667 16.6667H2.91667C2.14312 16.6667 1.40125 16.3594 0.854272 15.8124C0.307291 15.2654 0 14.5235 0 13.75V2.5C0 1.83696 0.263392 1.20107 0.732233 0.732233C1.20107 0.263392 1.83696 0 2.5 0H14.1667C14.3877 0 14.5996 0.0877973 14.7559 0.244078C14.9122 0.400358 15 0.61232 15 0.833333V15.8333C15 16.0543 14.9122 16.2663 14.7559 16.4226C14.5996 16.5789 14.3877 16.6667 14.1667 16.6667ZM13.3333 15V12.5H2.91667C2.58515 12.5 2.2672 12.6317 2.03278 12.8661C1.79836 13.1005 1.66667 13.4185 1.66667 13.75C1.66667 14.0815 1.79836 14.3995 2.03278 14.6339C2.2672 14.8683 2.58515 15 2.91667 15H13.3333Z" fill="#666563"/>
</svg>
