<svg width="15" height="17" viewBox="0 0 15 17" fill="none" xmlns="http://www.w3.org/2000/svg">
    <path fill-rule="evenodd" clip-rule="evenodd" d="M2.5 0C1.11929 0 0 1.11929 0 2.5V14.1667C0 15.5474 1.11929 16.6667 2.5 16.6667H12.5C13.8807 16.6667 15 15.5474 15 14.1667V4.78553C15 4.12249 14.7366 3.48661 14.2678 3.01777L11.9822 0.732233C11.5134 0.263392 10.8775 0 10.2145 0H2.5ZM10 1.83925V3.33333C10 4.2538 10.7462 5 11.6667 5H13.1607C13.532 5 13.7179 4.55119 13.4554 4.2887L10.7113 1.54462C10.4488 1.28214 10 1.46804 10 1.83925ZM3.33333 7.5C3.33333 7.03976 3.70643 6.66667 4.16667 6.66667H10.8333C11.2936 6.66667 11.6667 7.03976 11.6667 7.5C11.6667 7.96024 11.2936 8.33333 10.8333 8.33333H4.16667C3.70643 8.33333 3.33333 7.96024 3.33333 7.5ZM4.16667 10C3.70643 10 3.33333 10.3731 3.33333 10.8333C3.33333 11.2936 3.70643 11.6667 4.16667 11.6667H7.5C7.96024 11.6667 8.33333 11.2936 8.33333 10.8333C8.33333 10.3731 7.96024 10 7.5 10H4.16667Z" fill="#666563"/>
</svg>
