<svg width="15" height="17" viewBox="0 0 15 17" fill="none" xmlns="http://www.w3.org/2000/svg">
    <path d="M15 13.3333H2.5C2.27899 13.3333 2.06702 13.4211 1.91074 13.5774C1.75446 13.7337 1.66667 13.9457 1.66667 14.1667C1.66667 14.3877 1.75446 14.5996 1.91074 14.7559C2.06702 14.9122 2.27899 15 2.5 15H15V16.6667H2.5C1.83696 16.6667 1.20107 16.4033 0.732233 15.9344C0.263392 15.4656 0 14.8297 0 14.1667V1.66667C0 1.22464 0.175595 0.800716 0.488155 0.488155C0.800716 0.175595 1.22464 0 1.66667 0H15V13.3333ZM10.8333 5.83333V4.16667H4.16667V5.83333H10.8333Z" fill="#666563"/>
</svg>
