<svg width="17" height="15" viewBox="0 0 17 15" xmlns="http://www.w3.org/2000/svg">
    <path fill="currentColor" fill-rule="evenodd" clip-rule="evenodd" d="
    M14.1667 15H2.5C1.1193 15 0 13.8807 0 12.5V2.5C0 1.1193 1.1193 0 2.5 0H4.7978
    C5.4608 0 6.0967 0.2634 6.5656 0.7322L7.5 1.6667H14.1667
    C15.5474 1.6667 16.6667 2.786 16.6667 4.1667V12.5
    C16.6667 13.8807 15.5474 15 14.1667 15Z

    M4.6666 5.5H9.3333C9.7935 5.5 10.1666 5.8731 10.1666 6.3333
    C10.1666 6.7936 9.7935 7.1667 9.3333 7.1667H4.6666
    C4.2063 7.1667 3.8333 6.7936 3.8333 6.3333
    C3.8333 5.8731 4.2063 5.5 4.6666 5.5Z

    M4.6666 8.8333H10.6666
    C11.1268 8.8333 11.4999 9.2064 11.4999 9.6667
    C11.4999 10.1269 11.1268 10.5 10.6666 10.5H4.6666
    C4.2063 10.5 3.8333 10.1269 3.8333 9.6667
    C3.8333 9.2064 4.2063 8.8333 4.6666 8.8333Z
  "/>
</svg>