<svg width="17" height="14" viewBox="0 0 17 14" fill="none" xmlns="http://www.w3.org/2000/svg">
    <path d="M8.33362 0C11.8637 0.000232194 14.9042 3.57393 16.2799 5.48828C16.795 6.2052 16.795 7.12879 16.2799 7.8457C14.9042 9.76006 11.8637 13.3338 8.33362 13.334C4.80337 13.334 1.76206 9.76009 0.386353 7.8457C-0.128789 7.12879 -0.128789 6.2052 0.386353 5.48828C1.76206 3.5739 4.80337 0 8.33362 0ZM8.33362 2.70898C6.04329 2.70898 4.18616 4.48087 4.18616 6.66699C4.18616 8.85316 6.04329 10.625 8.33362 10.625C10.6238 10.6248 12.4801 8.85305 12.4801 6.66699C12.4801 4.48098 10.6238 2.70916 8.33362 2.70898ZM8.33362 3.95898C9.90054 3.95916 11.1705 5.17135 11.1705 6.66699C11.1705 8.16263 9.90054 9.37482 8.33362 9.375C6.76654 9.375 5.49573 8.16274 5.49573 6.66699C5.49573 5.17124 6.76653 3.95898 8.33362 3.95898Z" fill="currentColor"/>
</svg>
