<svg width="36" height="36" viewBox="0 0 36 36" fill="none" xmlns="http://www.w3.org/2000/svg">
    <path d="M0 21.1323C1.23099 27.5745 5.94978 32.7856 12.1047 34.7142C14.8129 31.4316 16.7004 25.81 17.2749 20.5989C10.8327 22.3222 4.71879 22.4453 0 21.1323Z" fill="#FF9900"/>
    <path d="M6.31668 10.8743C4.01883 12.4746 2.33649 14.3211 1.1055 16.0445C5.12672 16.8241 11.1175 16.3727 17.2314 14.4442C16.3287 9.06887 13.0461 6.15553 6.31668 10.8743Z" fill="#FF9900"/>
    <path d="M31.305 6.60631C28.0634 2.58508 23.0574 0 17.4769 0C11.363 0 5.94666 3.07747 2.74609 7.79626C6.31596 5.74461 11.6913 3.44677 15.4663 5.29325C17.8462 6.44217 19.6106 9.47861 20.3082 13.3357C25.027 11.4482 28.843 9.02725 31.305 6.60631Z" fill="#FF9900"/>
    <path d="M20.888 19.49C20.7649 19.5311 20.6418 19.5721 20.5187 19.6131C19.9853 24.7422 17.7695 30.3638 13.1328 35.0415C14.5279 35.3698 15.9641 35.5749 17.4413 35.5749C27.2481 35.5749 35.2085 27.6146 35.2085 17.7666C35.2085 15.8381 34.8803 13.9506 34.3058 12.1862C30.818 15.0995 26.1813 17.6025 20.888 19.49Z" fill="#FF9900"/>
</svg>
