<svg width="44" height="45" viewBox="0 0 44 45" fill="none" xmlns="http://www.w3.org/2000/svg">
<path d="M26.0821 24.3844C25.87 24.4904 25.764 24.4904 25.552 24.5964C24.9158 31.0639 22.1592 38.0615 16.3279 43.8928C18.0243 44.3169 19.8267 44.5289 21.7351 44.5289C34.0338 44.5289 44.0001 34.5627 44.0001 22.2639C44.0001 19.8254 43.576 17.4929 42.9398 15.2664C38.5929 18.8712 32.7616 22.0519 26.0821 24.3844Z" fill="#FBBE3E"/>
<path d="M39.1229 8.26985C34.9879 3.18072 28.8386 0 21.735 0C14.1013 0 7.31577 3.92288 3.28687 9.75418C7.73986 7.20961 14.5254 4.34697 19.1904 6.57347C22.1591 8.0578 24.3856 11.7686 25.2338 16.6457C31.2771 14.3132 36.0482 11.2385 39.1229 8.26985Z" fill="#FBBE3E"/>
<path d="M7.84445 13.5719C4.98181 15.5863 2.86135 17.8128 1.271 20.0393C6.25411 20.9935 13.7818 20.4634 21.4155 18.0249C20.4613 11.3454 16.3263 7.74059 7.84445 13.5719Z" fill="#FBBE3E"/>
<path d="M0 26.5049C1.59036 34.5627 7.42165 41.0301 15.1614 43.4687C18.5541 39.3337 20.8867 32.3362 21.6288 25.7627C13.571 27.8832 5.8313 28.0952 0 26.5049Z" fill="#FBBE3E"/>
</svg>
