<svg width="240" height="36" viewBox="0 0 240 36" fill="none" xmlns="http://www.w3.org/2000/svg">
    <g clip-path="url(#clip0_2084_4254)">
        <path d="M0 21.4544C0.609446 24.6334 2.05471 27.5816 4.19647 29.997C6.32083 32.4124 9.05463 34.2062 12.1019 35.1653C14.8008 31.8619 16.7162 26.1431 17.2735 20.8683C10.8481 22.6265 4.73627 22.7509 0.0174128 21.4544H0Z" fill="#FF9900"/>
        <path d="M6.32132 11.0467C4.28403 12.4853 2.52534 14.2613 1.08008 16.3038C5.10242 17.0852 11.1098 16.6235 17.1695 14.6698C16.3162 9.25296 13.0426 6.30476 6.28649 11.0645" fill="#FF9900"/>
        <path d="M31.3256 6.71337C29.5843 4.5111 27.3554 2.7706 24.8132 1.59842C22.2883 0.444006 19.5197 -0.106562 16.7337 -3.3062e-07C13.9476 0.124321 11.2312 0.888012 8.81086 2.27331C6.37307 3.64085 4.30096 5.57671 2.75122 7.9033C6.30342 5.84312 11.684 3.48101 15.4451 5.32807C17.7784 6.53577 19.5894 9.57277 20.3207 13.4978C24.3779 11.9704 28.1216 9.66157 31.3256 6.69561V6.71337Z" fill="#FF9900"/>
        <path d="M20.8953 19.7316L20.5122 19.8559C19.9028 25.7523 17.2909 31.258 13.1466 35.4672C15.7586 36.1243 18.4924 36.1776 21.1391 35.6093C23.7858 35.0409 26.2584 33.8688 28.3828 32.1993C30.5072 30.5121 32.231 28.3631 33.4151 25.9122C34.5992 23.4613 35.226 20.7617 35.226 18.0266C35.226 16.1085 34.93 14.2082 34.338 12.3966C30.2982 15.5935 25.7361 18.0799 20.8779 19.7494L20.8953 19.7316Z" fill="#FF9900"/>
        <path d="M60.0563 8.91574C59.7081 8.59605 59.2554 8.43621 58.7852 8.45397H44.6112C44.1411 8.43621 43.6883 8.59605 43.3575 8.91574C43.1834 9.07558 43.0615 9.25318 42.9744 9.4663C42.8874 9.67943 42.8525 9.91031 42.8525 10.1234C42.8525 10.3721 42.8874 10.603 42.9744 10.8338C43.0615 11.0647 43.1834 11.2601 43.3575 11.4377C43.5142 11.5975 43.7232 11.7396 43.9321 11.8284C44.1411 11.9172 44.3849 11.9527 44.6112 11.9527H49.9569V25.7347C49.9569 25.9656 49.9918 26.2142 50.0788 26.4273C50.1659 26.6582 50.2878 26.8536 50.4619 27.0134C50.636 27.1733 50.845 27.3153 51.0539 27.3864C51.2803 27.4752 51.5067 27.5107 51.7505 27.4929C51.9768 27.4929 52.2032 27.4574 52.4121 27.3864C52.6211 27.2976 52.8126 27.1733 52.9693 27.0134C53.2828 26.6582 53.4569 26.1964 53.4395 25.7169V11.935H58.8026C59.029 11.935 59.2728 11.8995 59.4817 11.8107C59.7081 11.7219 59.8996 11.5975 60.0563 11.4199C60.2131 11.2423 60.3524 11.0292 60.422 10.8161C60.5091 10.5852 60.5439 10.3543 60.5265 10.1057C60.5265 9.87479 60.4917 9.66167 60.422 9.44854C60.3349 9.23542 60.2131 9.05782 60.0563 8.89798V8.91574Z" fill="white"/>
        <path d="M161.869 8.91564C161.521 8.59595 161.068 8.43611 160.598 8.45387H146.424C145.954 8.43611 145.501 8.59595 145.17 8.91564C144.996 9.07548 144.874 9.25308 144.787 9.4662C144.7 9.67933 144.665 9.91021 144.665 10.1233C144.665 10.372 144.7 10.6029 144.787 10.8337C144.874 11.0646 144.996 11.26 145.17 11.4376C145.327 11.5974 145.536 11.7395 145.745 11.8283C145.954 11.9171 146.197 11.9526 146.424 11.9526H151.787V25.7346C151.787 25.9655 151.822 26.2141 151.909 26.4272C151.996 26.6581 152.118 26.8535 152.292 27.0133C152.466 27.1732 152.675 27.3152 152.884 27.3863C153.11 27.4751 153.337 27.5106 153.58 27.4928C153.807 27.4928 154.033 27.4573 154.242 27.3863C154.451 27.2975 154.643 27.1732 154.799 27.0133C155.113 26.6581 155.27 26.1963 155.252 25.7168V11.9349H160.615C160.842 11.9349 161.085 11.8994 161.294 11.8106C161.521 11.7218 161.712 11.5974 161.869 11.4198C162.026 11.2422 162.165 11.0291 162.235 10.816C162.322 10.5851 162.357 10.3542 162.339 10.1056C162.339 9.87469 162.304 9.66157 162.235 9.44844C162.148 9.23532 162.026 9.05772 161.869 8.89788V8.91564Z" fill="white"/>
        <path d="M73.743 23.6922C72.7853 24.2605 71.7057 24.5446 70.6087 24.5446C69.5117 24.5446 68.4321 24.2427 67.4744 23.6922C66.5515 23.1238 65.7854 22.3246 65.2804 21.3478C64.7232 20.3355 64.4272 19.1811 64.4272 18.0266C64.4272 16.8545 64.7058 15.6823 65.2804 14.6522C65.8028 13.6931 66.5515 12.8762 67.4744 12.3078C68.4321 11.7573 69.5117 11.4554 70.6087 11.4554C71.7057 11.4554 72.7853 11.7395 73.743 12.3078C74.6659 12.8762 75.3972 13.6931 75.9022 14.6522C76.442 15.6823 76.7206 16.8367 76.7032 18.0089C76.7206 19.1633 76.442 20.3177 75.9022 21.33C75.3972 22.2891 74.6485 23.1061 73.743 23.6744M78.8275 13.0538C78.0091 11.5974 76.8077 10.372 75.3624 9.53725C73.9171 8.70252 72.2803 8.27627 70.6087 8.29403C68.9023 8.27627 67.2306 8.70252 65.768 9.57277C64.3575 10.4075 63.1909 11.6152 62.3725 13.0538C61.5193 14.5634 61.0665 16.2684 61.0839 18.0089C61.0491 19.7316 61.4496 21.4188 62.2506 22.9462C62.9819 24.3493 64.0789 25.5392 65.4023 26.374C66.7605 27.2087 68.3276 27.6527 69.9122 27.6527C71.4968 27.6527 73.0639 27.2087 74.4221 26.374C75.2405 25.8589 75.9544 25.2195 76.5639 24.4736V25.7701C76.5639 26.001 76.5987 26.2496 76.6858 26.4628C76.7728 26.6759 76.8947 26.889 77.0688 27.0488C77.2256 27.2087 77.4345 27.3508 77.6435 27.4396C77.8524 27.5284 78.0962 27.5639 78.3226 27.5639C78.5489 27.5639 78.7927 27.5284 79.0017 27.4396C79.228 27.3508 79.4196 27.2264 79.5763 27.0488C79.7504 26.889 79.8723 26.6759 79.9594 26.4628C80.0464 26.2496 80.0813 26.001 80.0813 25.7701V18.0089C80.0987 16.2684 79.6633 14.5634 78.8275 13.0538Z" fill="white"/>
        <path d="M96.5361 23.55C95.8918 24.0295 95.1082 24.2604 94.3072 24.2249H87.6207V19.1632H94.3072C95.1082 19.1277 95.9092 19.3941 96.5361 19.8914C96.8147 20.1223 97.0236 20.4064 97.1803 20.7439C97.3196 21.0636 97.4067 21.4188 97.3893 21.7917C97.3893 22.1292 97.3196 22.4666 97.1803 22.7863C97.041 23.0882 96.8147 23.3546 96.5535 23.5677L96.5361 23.55ZM96.1704 12.3255C96.3793 12.5209 96.5535 12.7518 96.6579 13.0004C96.7624 13.2668 96.8321 13.5332 96.8147 13.8174C96.8321 14.439 96.6405 15.0428 96.2575 15.5401C96.0833 15.7532 95.8744 15.9308 95.6306 16.0552C95.3868 16.1795 95.1082 16.2328 94.847 16.2328H87.6033V11.7572H94.4988C95.1256 11.7217 95.7177 11.9348 96.1878 12.3433M99.9664 19.4474C99.3743 18.6304 98.5908 18.0088 97.6853 17.6181L97.5286 17.5648C97.9117 17.3694 98.2773 17.1208 98.6082 16.8366C99.0957 16.4281 99.4788 15.9308 99.74 15.3448C100.001 14.7764 100.123 14.1371 100.106 13.5155C100.106 12.6097 99.8619 11.7039 99.3918 10.9402C98.9042 10.1588 98.2077 9.53716 97.3719 9.12867C96.4838 8.68467 95.4913 8.47155 94.4988 8.48931H85.862C85.6357 8.48931 85.4093 8.52483 85.2004 8.61363C84.9914 8.70243 84.7999 8.82675 84.6431 8.98659C84.3123 9.32404 84.1208 9.76804 84.0859 10.2298V25.7523C84.0859 25.9831 84.1208 26.2318 84.2078 26.4449C84.2949 26.658 84.4168 26.8711 84.5909 27.031C84.7476 27.1908 84.9566 27.3329 85.1655 27.4217C85.3919 27.5105 85.6183 27.546 85.8446 27.546H94.3072C95.4739 27.5816 96.6231 27.3329 97.7027 26.8356C98.6256 26.4094 99.4092 25.7523 99.9838 24.9175C100.541 24.1006 100.837 23.1237 100.837 22.1292C100.837 21.1524 100.558 20.2111 99.9838 19.4296" fill="white"/>
        <path d="M120.688 8.91562C120.34 8.59594 119.887 8.43609 119.417 8.43609C118.947 8.43609 118.494 8.6137 118.146 8.91562C117.972 9.07546 117.85 9.28858 117.763 9.50171C117.676 9.71483 117.641 9.96347 117.641 10.1944V20.0335C117.641 20.8327 117.415 21.632 116.962 22.2891C116.492 22.964 115.865 23.5323 115.134 23.9053C114.315 24.3137 113.41 24.5091 112.504 24.4913C111.546 24.4913 110.589 24.296 109.718 23.8697C108.882 23.4613 108.203 22.8041 107.751 21.9872C107.228 20.9926 106.984 19.8737 107.037 18.7548V10.1766C107.037 9.94571 107.002 9.71483 106.915 9.48395C106.828 9.27083 106.706 9.07546 106.532 8.89786C106.183 8.56042 105.731 8.38281 105.26 8.38281C104.79 8.38281 104.338 8.56042 103.989 8.89786C103.833 9.0577 103.693 9.25306 103.606 9.48395C103.519 9.69707 103.484 9.92795 103.484 10.1766V18.7548C103.432 20.442 103.798 22.1292 104.564 23.6389C105.243 24.9176 106.27 25.9655 107.524 26.6581C108.83 27.3507 110.275 27.706 111.755 27.6882C113.183 27.7237 114.611 27.3685 115.865 26.6759C116.527 26.3207 117.136 25.8766 117.658 25.3616V25.699C117.658 26.0543 117.78 26.3917 117.972 26.6936C118.163 26.9778 118.442 27.2087 118.773 27.3507C119.104 27.4928 119.452 27.5283 119.8 27.4573C120.148 27.3863 120.462 27.2264 120.706 26.9778C120.862 26.8002 120.984 26.6048 121.071 26.3917C121.158 26.1786 121.193 25.9299 121.193 25.699V10.2121C121.193 9.98123 121.176 9.73259 121.089 9.51947C121.002 9.30635 120.88 9.09322 120.723 8.93338" fill="white"/>
        <path d="M137.856 23.6923C136.899 24.2606 135.819 24.5447 134.722 24.5447C133.625 24.5447 132.546 24.2428 131.588 23.6923C130.665 23.1239 129.899 22.3247 129.394 21.3479C128.837 20.3356 128.541 19.1812 128.541 18.0267C128.541 16.8546 128.819 15.6824 129.394 14.6523C129.916 13.6932 130.665 12.8763 131.588 12.3079C132.546 11.7574 133.625 11.4554 134.722 11.4554C135.819 11.4554 136.899 11.7396 137.856 12.3079C138.779 12.8763 139.511 13.6932 140.016 14.6523C140.555 15.6824 140.834 16.8546 140.817 18.0267C140.817 19.1812 140.555 20.3356 140.016 21.3479C139.511 22.307 138.762 23.1239 137.856 23.6923ZM142.941 13.0716C142.105 11.6153 140.904 10.4076 139.458 9.5551C138.013 8.72037 136.376 8.27637 134.705 8.27637C133.033 8.27637 131.396 8.72037 129.951 9.5551C128.506 10.3898 127.304 11.6153 126.469 13.0716C125.615 14.5813 125.18 16.2862 125.215 18.0267C125.197 19.7495 125.58 21.4367 126.364 22.9641C127.095 24.3671 128.192 25.5571 129.516 26.3918C130.874 27.2265 132.441 27.6705 134.026 27.6705C135.61 27.6705 137.177 27.2265 138.536 26.3918C139.354 25.8768 140.068 25.2374 140.677 24.4915V25.788C140.677 26.0188 140.712 26.2675 140.799 26.4806C140.886 26.6937 141.008 26.9069 141.182 27.0667C141.356 27.2265 141.548 27.3686 141.757 27.4574C141.983 27.5462 142.21 27.5817 142.436 27.5817C142.662 27.5817 142.906 27.5462 143.115 27.4574C143.324 27.3686 143.533 27.2443 143.69 27.0667C143.846 26.9069 143.986 26.6937 144.073 26.4806C144.16 26.2675 144.195 26.0188 144.195 25.788V18.0267C144.23 16.2862 143.794 14.5813 142.941 13.0716Z" fill="white"/>
        <path d="M212.575 13.6753C211.861 12.4321 210.903 11.4376 209.684 10.7094C208.483 9.99898 207.09 9.62601 205.54 9.62601C203.99 9.62601 202.649 9.98122 201.448 10.6916C200.246 11.402 199.289 12.3966 198.575 13.6398C197.878 14.883 197.513 16.2861 197.495 17.8312V32.2881C197.495 32.6078 197.565 32.8564 197.739 33.0162C197.913 33.1938 198.139 33.2826 198.453 33.2826C198.749 33.2826 198.993 33.1938 199.149 33.0162C199.323 32.8386 199.411 32.6078 199.411 32.2881V22.3956L200.003 23.2304C200.629 24.1184 201.483 24.8288 202.493 25.3793C203.52 25.9121 204.669 26.1963 205.923 26.1963C207.403 26.1963 208.726 25.8233 209.858 25.1129C211.007 24.3848 211.948 23.3902 212.609 22.147C213.289 20.9215 213.637 19.4829 213.637 17.92C213.637 16.3571 213.271 14.9008 212.575 13.6753ZM210.99 21.2767C210.45 22.2713 209.701 23.0705 208.744 23.6388C207.803 24.2249 206.724 24.5091 205.54 24.5091C204.356 24.5091 203.294 24.2249 202.353 23.6388C201.413 23.0705 200.682 22.2713 200.142 21.2767C199.62 20.2822 199.341 19.1455 199.341 17.92C199.341 16.6946 199.62 15.5402 200.142 14.5456C200.682 13.551 201.43 12.7518 202.371 12.1657C203.328 11.5974 204.391 11.2955 205.557 11.2955C206.724 11.2955 207.838 11.5974 208.761 12.1835C209.701 12.7696 210.45 13.5688 210.99 14.5634C211.53 15.5402 211.808 16.6768 211.808 17.92C211.808 19.1633 211.53 20.2822 210.99 21.2767Z" fill="#FF9900"/>
        <path d="M232.042 13.6398C231.346 12.3966 230.388 11.402 229.186 10.6916C227.985 9.98122 226.592 9.62601 225.042 9.62601C223.492 9.62601 222.065 9.98122 220.846 10.6916C219.644 11.402 218.686 12.3966 217.99 13.6398C217.293 14.883 216.945 16.3216 216.945 17.92C216.945 19.5185 217.293 20.9393 217.99 22.1825C218.686 23.4257 219.644 24.4203 220.846 25.1129C222.065 25.8233 223.475 26.1963 225.042 26.1963C226.609 26.1963 228.002 25.8233 229.204 25.1129C230.405 24.4025 231.38 23.4257 232.059 22.1825C232.756 20.9393 233.122 19.5007 233.122 17.92C233.104 16.3216 232.739 14.883 232.042 13.6398ZM230.458 21.2945C229.935 22.2713 229.186 23.0705 228.246 23.6388C227.306 24.2249 226.226 24.5091 225.042 24.5091C223.858 24.5091 222.761 24.2249 221.821 23.6388C220.88 23.0705 220.114 22.2713 219.575 21.2945C219.035 20.3177 218.756 19.181 218.756 17.92C218.756 16.6591 219.035 15.5402 219.575 14.5456C220.114 13.551 220.88 12.7518 221.821 12.1657C222.778 11.5974 223.858 11.2955 225.042 11.2955C226.226 11.2955 227.306 11.5974 228.246 12.1657C229.186 12.7518 229.935 13.551 230.458 14.5456C230.997 15.5402 231.258 16.6768 231.258 17.92C231.258 19.1633 230.997 20.2999 230.458 21.2945Z" fill="#FF9900"/>
        <path d="M191.836 26.0365C191.314 26.0365 190.878 25.5925 190.878 25.0597V14.3502C190.878 12.9472 189.694 11.8105 188.214 11.8105H182.538C181.075 11.8105 179.873 12.9472 179.873 14.3502V25.0597C179.873 25.5925 179.438 26.0365 178.916 26.0365C178.393 26.0365 177.958 25.5925 177.958 25.0597V14.3502C177.958 11.8816 180.013 9.8569 182.52 9.8569H188.197C190.722 9.8569 192.759 11.8638 192.759 14.3502V25.0597C192.759 25.5925 192.324 26.0365 191.801 26.0365H191.836Z" fill="#FF9900"/>
        <path d="M240 9.59052V26.5871C240 28.2743 239.408 29.9082 238.328 31.1692C238.206 31.2935 238.102 31.4179 237.98 31.5422C236.692 32.8387 234.933 33.5846 233.104 33.5846H205.993C205.871 33.6024 205.766 33.5846 205.662 33.5491C205.54 33.5136 205.453 33.4425 205.366 33.3715C205.296 33.2827 205.227 33.1939 205.192 33.0873C205.157 32.9808 205.14 32.8564 205.14 32.7499C205.122 32.6255 205.14 32.519 205.192 32.4124C205.227 32.3059 205.279 32.1993 205.366 32.1105C205.453 32.0395 205.54 31.9684 205.662 31.9329C205.766 31.8974 205.871 31.8796 205.993 31.8796H233.104C234.48 31.8796 235.821 31.3291 236.796 30.3345C237.771 29.3399 238.328 27.9901 238.328 26.5871V9.51948C238.328 9.23532 238.294 8.96891 238.241 8.70251C238.241 8.57819 238.206 8.45387 238.172 8.32955C238.154 8.22298 238.137 8.13418 238.085 8.02762C237.997 7.69018 237.858 7.35273 237.667 7.03305C237.527 6.74889 237.353 6.48248 237.144 6.23384C237.04 6.09176 236.918 5.96743 236.796 5.84311C236.622 5.66551 236.43 5.48791 236.221 5.36359C236.065 5.2215 235.891 5.11494 235.716 5.00838C234.933 4.54662 234.027 4.29797 233.104 4.29797H176.879C175.503 4.29797 174.18 4.84854 173.187 5.82535C172.578 6.44696 172.125 7.19289 171.881 8.02762C171.829 8.18746 171.794 8.34731 171.759 8.52491C171.725 8.70251 171.69 8.88011 171.672 9.07548C171.655 9.23532 171.655 9.39516 171.655 9.555V26.5871C171.655 27.9901 172.195 29.3399 173.187 30.3345C174.162 31.3291 175.486 31.8796 176.879 31.8796H190.896C191 31.8796 191.122 31.8974 191.227 31.9329C191.331 31.9684 191.436 32.0395 191.523 32.1105C191.592 32.1993 191.662 32.3059 191.697 32.4124C191.732 32.519 191.749 32.6255 191.749 32.7499C191.749 32.8564 191.732 32.9808 191.697 33.0873C191.645 33.1939 191.592 33.2827 191.523 33.3715C191.436 33.4425 191.331 33.5136 191.227 33.5491C191.122 33.5846 191 33.6024 190.896 33.6024H176.879C175.05 33.5846 173.292 32.8387 171.986 31.5422C171.864 31.4179 171.742 31.2935 171.637 31.1514C170.558 29.8905 169.966 28.2565 169.966 26.5871V9.59052C169.966 7.7257 170.697 5.94967 171.986 4.63542C172.804 3.81845 173.779 3.2146 174.859 2.89491C175.016 2.84163 175.19 2.78835 175.346 2.75283C175.851 2.62851 176.356 2.57523 176.879 2.57523H233.104C233.557 2.57523 234.01 2.62851 234.463 2.71731C235.124 2.85939 235.751 3.09028 236.361 3.40996C236.953 3.72964 237.493 4.13813 237.98 4.63542C239.286 5.94967 240 7.74346 240 9.59052Z" fill="#FF9900"/>
    </g>
    <defs>
        <clipPath id="clip0_2084_4254">
            <rect width="240" height="36" fill="white"/>
        </clipPath>
    </defs>
</svg>
