<svg width="196" height="30" viewBox="0 0 196 30" fill="none" xmlns="http://www.w3.org/2000/svg">
<path d="M0 17.29C1.0374 22.5462 4.84121 26.765 9.8899 28.3557C12.103 25.6584 13.6246 21.0938 14.1087 16.8059C8.8525 18.1891 3.80381 18.3274 0 17.29Z" fill="#FBBE3E"/>
<path d="M5.11788 8.85249C3.25055 10.1665 1.86736 11.6189 0.829956 13.0713C4.08049 13.6937 8.99086 13.3479 13.9704 11.7572C13.348 7.40012 10.6507 5.04868 5.11788 8.85249Z" fill="#FBBE3E"/>
<path d="M25.5201 5.3945C22.8228 2.07481 18.8115 0 14.1778 0C9.19826 0 4.77201 2.55892 2.14392 6.36273C5.04865 4.70289 9.4749 2.83557 12.518 4.28793C14.4544 5.25617 15.9068 7.67678 16.4601 10.8581C20.4022 9.33662 23.5144 7.33098 25.5201 5.3945Z" fill="#FBBE3E"/>
<path d="M17.0134 15.9068C16.8751 15.9759 16.806 15.9759 16.6676 16.0451C16.2527 20.2639 14.4545 24.8284 10.6507 28.6322C11.7573 28.9089 12.933 29.0472 14.1779 29.0472C22.2005 29.0472 28.7015 22.5461 28.7015 14.5236C28.7015 12.9329 28.4249 11.4113 28.0099 9.95898C25.1743 12.3104 21.3705 14.3852 17.0134 15.9068Z" fill="#FBBE3E"/>
<path d="M49.0346 7.12363C48.758 6.84699 48.4122 6.77783 47.9972 6.77783H36.4474C36.0325 6.77783 35.6867 6.91615 35.41 7.12363C35.1334 7.40027 34.9951 7.67691 34.9951 8.09187C34.9951 8.50683 35.1334 8.85263 35.41 9.12927C35.6867 9.40592 36.0325 9.54424 36.4474 9.54424H40.8045V20.679C40.8045 21.094 40.9428 21.4398 41.2195 21.7164C41.4961 21.9931 41.8419 22.1314 42.2569 22.1314C42.6718 22.1314 43.0177 21.9931 43.2251 21.7164C43.5018 21.4398 43.5709 21.094 43.5709 20.679V9.54424H47.928C48.343 9.54424 48.6888 9.40592 48.9654 9.12927C49.2421 8.85263 49.3804 8.50683 49.3804 8.09187C49.4496 7.74607 49.3112 7.40027 49.0346 7.12363Z" fill="white"/>
<path d="M132.165 7.12363C131.888 6.84699 131.543 6.77783 131.128 6.77783H119.578C119.163 6.77783 118.817 6.91615 118.541 7.12363C118.264 7.40027 118.126 7.67691 118.126 8.09187C118.126 8.50683 118.264 8.85263 118.541 9.12927C118.817 9.40592 119.163 9.54424 119.578 9.54424H123.935V20.679C123.935 21.094 124.073 21.4398 124.35 21.7164C124.627 21.9931 124.972 22.1314 125.387 22.1314C125.802 22.1314 126.148 21.9931 126.356 21.7164C126.632 21.4398 126.701 21.094 126.701 20.679V9.54424H131.059C131.474 9.54424 131.819 9.40592 132.096 9.12927C132.373 8.85263 132.511 8.50683 132.511 8.09187C132.58 7.74607 132.442 7.40027 132.165 7.12363Z" fill="white"/>
<path d="M60.2386 19.0882C59.4778 19.5723 58.6479 19.7798 57.6797 19.7798C56.7114 19.7798 55.8815 19.5723 55.1207 19.0882C54.36 18.604 53.7375 17.9816 53.3225 17.2208C52.9076 16.3909 52.6309 15.561 52.6309 14.5236C52.6309 13.4862 52.8384 12.5871 53.3225 11.8263C53.7375 10.9964 54.36 10.374 55.1207 9.95902C55.8815 9.4749 56.7114 9.26742 57.6797 9.26742C58.6479 9.26742 59.4778 9.4749 60.2386 9.95902C60.9993 10.4431 61.5526 11.0656 62.0367 11.8263C62.4517 12.6563 62.6592 13.5554 62.6592 14.5236C62.6592 15.4918 62.4517 16.3909 62.0367 17.2208C61.5526 17.9816 60.9302 18.604 60.2386 19.0882ZM64.3882 10.5123C63.6966 9.33658 62.7975 8.36834 61.6218 7.7459C60.446 7.0543 59.132 6.7085 57.6797 6.7085C56.2273 6.7085 54.9132 7.0543 53.7375 7.7459C52.5618 8.4375 51.6627 9.33658 50.9711 10.5123C50.2795 11.688 49.9337 13.0021 49.9337 14.5236C49.9337 16.0451 50.2795 17.3592 50.9019 18.5349C51.5244 19.7106 52.4235 20.6097 53.4609 21.3013C54.5674 21.9929 55.8123 22.3387 57.1263 22.3387C58.4404 22.3387 59.7545 21.9929 60.7919 21.3013C61.4835 20.8863 62.0368 20.333 62.5209 19.7798V20.8172C62.5209 21.2321 62.6592 21.5779 62.9358 21.8546C63.2125 22.1312 63.5583 22.2695 63.9732 22.2695C64.3882 22.2695 64.734 22.1312 65.0106 21.8546C65.2873 21.5779 65.4256 21.2321 65.4256 20.8172V14.5236C65.3564 13.0021 65.0106 11.688 64.3882 10.5123Z" fill="white"/>
<path d="M78.8426 18.95C78.3585 19.2958 77.736 19.5033 77.0444 19.5033H71.5808V15.4229H77.0444C77.8052 15.4229 78.4276 15.6303 78.8426 16.0453C79.3267 16.4603 79.5342 16.9444 79.5342 17.5668C79.5342 18.1201 79.3267 18.6042 78.8426 18.95ZM78.4968 9.89004C78.8426 10.2358 79.0501 10.5816 79.0501 11.1349C79.0501 11.6882 78.9117 12.1723 78.5659 12.5181C78.2893 12.8639 77.8744 13.0714 77.3902 13.0714H76.9061H74.693H71.4424V9.47507H77.0444C77.736 9.40591 78.151 9.6134 78.4968 9.89004ZM81.609 15.6303C81.1249 15.0079 80.5024 14.5238 79.7417 14.178C79.6725 14.178 79.6725 14.178 79.6033 14.1088C79.9491 13.9705 80.2258 13.763 80.5024 13.5555C81.3324 12.8639 81.7473 11.9648 81.7473 10.8583C81.7473 10.0975 81.5398 9.40591 81.1249 8.78347C80.7099 8.16103 80.1566 7.67691 79.5342 7.33111C78.8426 6.9853 78.0818 6.77783 77.1827 6.77783H70.1284C69.7135 6.77783 69.4368 6.91615 69.1602 7.19279C68.8835 7.46943 68.7452 7.81523 68.676 8.23019V20.7482C68.676 21.1631 68.8144 21.5089 69.091 21.7856C69.3677 22.0622 69.7135 22.2005 70.1284 22.2005H77.0444C78.0818 22.2005 78.9809 21.9931 79.8108 21.6473C80.6408 21.3015 81.2632 20.7482 81.6781 20.1257C82.1623 19.5033 82.3697 18.7425 82.3697 17.8435C82.3006 17.0135 82.0931 16.2528 81.609 15.6303Z" fill="white"/>
<path d="M98.5533 7.12346C98.2766 6.84682 97.9308 6.7085 97.5159 6.7085C97.1009 6.7085 96.7551 6.84682 96.4785 7.12346C96.2018 7.4001 96.0635 7.7459 96.0635 8.16086V16.1143C96.0635 16.8059 95.856 17.4283 95.5102 17.9124C95.1644 18.4657 94.6112 18.8807 93.9887 19.2265C93.3663 19.5723 92.6746 19.7106 91.8447 19.7106C91.0148 19.7106 90.2541 19.5723 89.5624 19.2265C88.8708 18.8807 88.3867 18.3966 87.9718 17.705C87.5568 17.0134 87.3493 16.1834 87.3493 15.0769V8.16086C87.3493 7.7459 87.211 7.4001 86.9344 7.12346C86.6577 6.84682 86.3119 6.7085 85.897 6.7085C85.482 6.7085 85.1362 6.84682 84.8596 7.12346C84.5829 7.4001 84.4446 7.7459 84.4446 8.16086V15.0769C84.4446 16.6676 84.7213 17.9816 85.3437 19.019C85.9661 20.0564 86.7269 20.8863 87.7643 21.4396C88.8017 21.9929 89.9774 22.2695 91.2223 22.2695C92.4672 22.2695 93.5737 21.9929 94.6111 21.4396C95.1644 21.163 95.6486 20.8172 96.0635 20.4022V20.6789C96.0635 21.0938 96.2018 21.4396 96.4785 21.7163C96.7551 21.9929 97.1009 22.1312 97.5159 22.1312C97.9308 22.1312 98.2766 21.9929 98.5533 21.7163C98.8299 21.4396 98.9682 21.0938 98.9682 20.6789V8.16086C98.9682 7.7459 98.8299 7.4001 98.5533 7.12346Z" fill="white"/>
<path d="M112.593 19.0882C111.832 19.5723 111.002 19.7798 110.034 19.7798C109.066 19.7798 108.236 19.5723 107.475 19.0882C106.714 18.604 106.092 17.9816 105.677 17.2208C105.262 16.3909 104.985 15.561 104.985 14.5236C104.985 13.4862 105.193 12.5871 105.677 11.8263C106.092 10.9964 106.714 10.374 107.475 9.95902C108.236 9.4749 109.066 9.26742 110.034 9.26742C111.002 9.26742 111.832 9.4749 112.593 9.95902C113.354 10.4431 113.907 11.0656 114.391 11.8263C114.806 12.6563 115.013 13.5554 115.013 14.5236C115.013 15.4918 114.806 16.3909 114.391 17.2208C113.907 17.9816 113.354 18.604 112.593 19.0882ZM116.742 10.5123C116.051 9.33658 115.152 8.36834 113.976 7.7459C112.8 7.0543 111.486 6.7085 110.034 6.7085C108.582 6.7085 107.267 7.0543 106.092 7.7459C104.916 8.4375 104.017 9.33658 103.325 10.5123C102.634 11.688 102.288 13.0021 102.288 14.5236C102.288 16.0451 102.634 17.3592 103.256 18.5349C103.879 19.7106 104.778 20.6097 105.815 21.3013C106.922 21.9929 108.167 22.3387 109.481 22.3387C110.795 22.3387 112.109 21.9929 113.146 21.3013C113.838 20.8863 114.391 20.333 114.875 19.7798V20.8172C114.875 21.2321 115.013 21.5779 115.29 21.8546C115.567 22.1312 115.913 22.2695 116.327 22.2695C116.742 22.2695 117.088 22.1312 117.365 21.8546C117.642 21.5779 117.78 21.2321 117.78 20.8172V14.5236C117.78 13.0021 117.434 11.688 116.742 10.5123Z" fill="white"/>
<path d="M152.429 20.3331C153.536 20.3331 154.504 20.0565 155.334 19.5724C156.164 19.0882 156.855 18.3966 157.339 17.4976C157.824 16.5985 158.1 15.6302 158.1 14.5237C158.1 13.4171 157.824 12.3797 157.339 11.5498C156.855 10.6507 156.164 9.9591 155.334 9.47498C154.504 8.99085 153.536 8.71421 152.429 8.71421C151.392 8.71421 150.423 8.99085 149.524 9.47498C148.694 9.9591 148.003 10.6507 147.519 11.5498C147.035 12.4489 146.758 13.4171 146.758 14.5237C146.758 15.6302 147.035 16.5985 147.519 17.4976C148.003 18.3966 148.694 19.0882 149.524 19.5724C150.423 20.0565 151.392 20.3331 152.429 20.3331ZM145.79 27.0417C145.444 27.0417 145.167 26.9725 144.96 26.765C144.752 26.5575 144.683 26.2809 144.683 25.9351V14.3854C144.683 12.933 145.029 11.6189 145.721 10.4432C146.412 9.26749 147.311 8.36841 148.487 7.67681C149.663 6.98521 150.977 6.6394 152.429 6.6394C153.951 6.6394 155.265 6.98521 156.44 7.67681C157.616 8.36841 158.515 9.26749 159.207 10.4432C159.898 11.6189 160.244 12.933 160.244 14.4545C160.244 15.9069 159.898 17.2209 159.276 18.3966C158.584 19.5724 157.685 20.4714 156.579 21.163C155.472 21.8546 154.158 22.2004 152.706 22.2004C151.461 22.2004 150.354 21.9238 149.317 21.3705C148.279 20.8172 147.519 20.1256 146.896 19.2266V25.7968C146.896 26.1426 146.827 26.4192 146.62 26.6267C146.343 26.9725 146.135 27.0417 145.79 27.0417Z" fill="#FBBE3E"/>
<path d="M172.416 7.0543C171.932 6.84682 171.31 6.7085 170.411 6.7085C169.304 6.7085 168.336 6.98514 167.437 7.46926C166.745 7.88422 166.123 8.4375 165.639 9.1291V7.88422C165.639 7.53842 165.569 7.26178 165.362 7.12346C165.155 6.91598 164.947 6.84681 164.601 6.84681C164.255 6.84681 163.979 6.91598 163.841 7.12346C163.633 7.33094 163.564 7.53842 163.564 7.88422V21.0938C163.564 21.4396 163.633 21.7162 163.841 21.8546C164.048 22.0621 164.255 22.1312 164.601 22.1312C164.947 22.1312 165.224 22.0621 165.362 21.8546C165.569 21.6471 165.639 21.4396 165.639 21.0938V12.7254C165.639 11.8263 165.846 11.0656 166.33 10.4431C166.814 9.8207 167.437 9.33658 168.267 9.05994C169.097 8.7833 169.996 8.64498 171.033 8.71414C171.379 8.71414 171.656 8.7833 171.863 8.7833C172.14 8.7833 172.347 8.7833 172.486 8.64498C172.693 8.57582 172.762 8.36834 172.831 8.0917C173.039 7.60758 172.9 7.26178 172.416 7.0543Z" fill="#FBBE3E"/>
<path d="M182.306 20.3331C183.413 20.3331 184.381 20.0565 185.211 19.5724C186.041 19.0882 186.733 18.3966 187.217 17.4976C187.701 16.5985 187.977 15.6302 187.977 14.5237C187.977 13.4171 187.701 12.3797 187.217 11.5498C186.733 10.7199 186.041 9.9591 185.211 9.47498C184.381 8.99085 183.413 8.71421 182.306 8.71421C181.2 8.71421 180.232 8.99085 179.402 9.47498C178.572 9.9591 177.88 10.6507 177.396 11.5498C176.912 12.4489 176.635 13.4171 176.635 14.5237C176.635 15.6302 176.912 16.6676 177.396 17.4976C177.88 18.3966 178.572 19.0882 179.402 19.5724C180.301 20.0565 181.269 20.3331 182.306 20.3331ZM182.306 22.2696C180.785 22.2696 179.471 21.9238 178.295 21.2322C177.119 20.5406 176.22 19.6415 175.529 18.4658C174.837 17.2901 174.491 15.976 174.491 14.4545C174.491 12.933 174.837 11.6189 175.529 10.4432C176.22 9.26749 177.119 8.36841 178.295 7.67681C179.471 6.98521 180.785 6.6394 182.306 6.6394C183.828 6.6394 185.142 6.98521 186.318 7.67681C187.493 8.36841 188.392 9.26749 189.084 10.4432C189.776 11.6189 190.121 12.933 190.121 14.4545C190.121 15.976 189.776 17.2901 189.084 18.4658C188.392 19.6415 187.493 20.5406 186.318 21.2322C185.142 21.9238 183.828 22.2696 182.306 22.2696Z" fill="#FBBE3E"/>
<path d="M152.083 27.0417C151.876 27.0417 151.668 26.9725 151.599 26.8342C151.461 26.6959 151.392 26.5575 151.392 26.3501C151.392 26.1426 151.461 25.9351 151.599 25.8659C151.737 25.7968 151.876 25.6585 152.083 25.6585H190.329C192.68 25.6585 194.617 23.722 194.617 21.3705V7.60766C194.617 5.25621 192.68 3.31973 190.329 3.31973H144.406C142.055 3.31973 140.119 5.25621 140.119 7.60766V26.2809C140.119 26.4884 140.049 26.6959 139.911 26.765C139.773 26.9033 139.634 26.9725 139.427 26.9725C139.219 26.9725 139.012 26.9033 138.943 26.765C138.805 26.6267 138.735 26.4884 138.735 26.2809V7.60766C138.735 4.49545 141.294 1.93652 144.406 1.93652H190.329C193.441 1.93652 196 4.49545 196 7.60766V21.3705C196 24.4827 193.441 27.0417 190.329 27.0417H152.083Z" fill="#FBBE3E"/>
</svg>
