<svg width="20" height="20" viewBox="0 0 20 20" fill="none" xmlns="http://www.w3.org/2000/svg">
    <path d="M12.8005 6.75H3.25C1.86929 6.75 0.75 5.63071 0.75 4.25C0.75 2.86929 1.86929 1.75 3.25 1.75H12.8005M6.69949 17.75H16.25C17.6307 17.75 18.75 16.6307 18.75 15.25C18.75 13.8693 17.6307 12.75 16.25 12.75H6.69949M0.75 15.25C0.75 17.183 2.317 18.75 4.25 18.75C6.183 18.75 7.75 17.183 7.75 15.25C7.75 13.317 6.183 11.75 4.25 11.75C2.317 11.75 0.75 13.317 0.75 15.25ZM18.75 4.25C18.75 6.183 17.183 7.75 15.25 7.75C13.317 7.75 11.75 6.183 11.75 4.25C11.75 2.317 13.317 0.75 15.25 0.75C17.183 0.75 18.75 2.317 18.75 4.25Z" stroke="currentColor" stroke-width="1.5" stroke-linecap="round" stroke-linejoin="round"/>
</svg>
