<svg width="22" height="22" viewBox="0 0 22 22" fill="none" xmlns="http://www.w3.org/2000/svg">
    <path d="M9.75001 3.25H17.05C18.1701 3.25 18.7302 3.25 19.158 3.46799C19.5343 3.65973 19.8403 3.96569 20.032 4.34202C20.25 4.76984 20.25 5.32989 20.25 6.45V7.75C20.25 8.68188 20.25 9.14783 20.0978 9.51537C19.8948 10.0054 19.5054 10.3948 19.0154 10.5978C18.6478 10.75 18.1819 10.75 17.25 10.75M11.75 18.25H4.45001C3.3299 18.25 2.76985 18.25 2.34202 18.032C1.9657 17.8403 1.65974 17.5343 1.46799 17.158C1.25001 16.7302 1.25001 16.1701 1.25001 15.05V13.75C1.25001 12.8181 1.25001 12.3522 1.40225 11.9846C1.60523 11.4946 1.99458 11.1052 2.48464 10.9022C2.85218 10.75 3.31812 10.75 4.25001 10.75M9.05001 13.25H12.45C12.73 13.25 12.87 13.25 12.977 13.1955C13.0711 13.1476 13.1476 13.0711 13.1955 12.977C13.25 12.87 13.25 12.73 13.25 12.45V9.05C13.25 8.76997 13.25 8.62996 13.1955 8.523C13.1476 8.42892 13.0711 8.35243 12.977 8.3045C12.87 8.25 12.73 8.25 12.45 8.25H9.05001C8.76998 8.25 8.62997 8.25 8.52301 8.3045C8.42893 8.35243 8.35244 8.42892 8.3045 8.523C8.25001 8.62996 8.25001 8.76997 8.25001 9.05V12.45C8.25001 12.73 8.25001 12.87 8.3045 12.977C8.35244 13.0711 8.42893 13.1476 8.52301 13.1955C8.62997 13.25 8.76998 13.25 9.05001 13.25ZM16.55 20.75H19.95C20.23 20.75 20.37 20.75 20.477 20.6955C20.5711 20.6476 20.6476 20.5711 20.6955 20.477C20.75 20.37 20.75 20.23 20.75 19.95V16.55C20.75 16.27 20.75 16.13 20.6955 16.023C20.6476 15.9289 20.5711 15.8524 20.477 15.8045C20.37 15.75 20.23 15.75 19.95 15.75H16.55C16.27 15.75 16.13 15.75 16.023 15.8045C15.9289 15.8524 15.8524 15.9289 15.8045 16.023C15.75 16.13 15.75 16.27 15.75 16.55V19.95C15.75 20.23 15.75 20.37 15.8045 20.477C15.8524 20.5711 15.9289 20.6476 16.023 20.6955C16.13 20.75 16.27 20.75 16.55 20.75ZM1.55001 5.75H4.95001C5.23003 5.75 5.37005 5.75 5.477 5.6955C5.57108 5.64757 5.64757 5.57108 5.69551 5.477C5.75001 5.37004 5.75001 5.23003 5.75001 4.95V1.55C5.75001 1.26997 5.75001 1.12996 5.69551 1.023C5.64757 0.928924 5.57108 0.852433 5.477 0.804497C5.37005 0.75 5.23003 0.75 4.95001 0.75H1.55001C1.26998 0.75 1.12997 0.75 1.02301 0.804497C0.928929 0.852433 0.852439 0.928924 0.804502 1.023C0.750006 1.12996 0.750006 1.26997 0.750006 1.55V4.95C0.750006 5.23003 0.750006 5.37004 0.804502 5.477C0.852439 5.57108 0.928929 5.64757 1.02301 5.6955C1.12997 5.75 1.26998 5.75 1.55001 5.75Z" stroke="currentColor" stroke-width="1.5" stroke-linecap="round" stroke-linejoin="round"/>
</svg>
