<svg width="22" height="22" viewBox="0 0 22 22" fill="none" xmlns="http://www.w3.org/2000/svg">
    <path d="M4.0663 18.1884C4.67462 16.7552 6.09492 15.75 7.75 15.75H13.75C15.4051 15.75 16.8254 16.7552 17.4337 18.1884M14.75 8.25C14.75 10.4591 12.9591 12.25 10.75 12.25C8.54086 12.25 6.75 10.4591 6.75 8.25C6.75 6.04086 8.54086 4.25 10.75 4.25C12.9591 4.25 14.75 6.04086 14.75 8.25ZM20.75 10.75C20.75 16.2728 16.2728 20.75 10.75 20.75C5.22715 20.75 0.75 16.2728 0.75 10.75C0.75 5.22715 5.22715 0.75 10.75 0.75C16.2728 0.75 20.75 5.22715 20.75 10.75Z" stroke="currentColor" stroke-width="1.5" stroke-linecap="round" stroke-linejoin="round"/>
</svg>
