<svg width="22" height="22" viewBox="0 0 22 22" fill="none" xmlns="http://www.w3.org/2000/svg">
    <path d="M4.75 13.75L6.75 15.75L11.25 11.25M6.75 6.75V3.95C6.75 2.8299 6.75 2.26984 6.96799 1.84202C7.15973 1.46569 7.46569 1.15973 7.84202 0.967987C8.26984 0.75 8.82989 0.75 9.95 0.75H17.55C18.6701 0.75 19.2302 0.75 19.658 0.967987C20.0343 1.15973 20.3403 1.46569 20.532 1.84202C20.75 2.26984 20.75 2.8299 20.75 3.95V11.55C20.75 12.6701 20.75 13.2302 20.532 13.658C20.3403 14.0343 20.0343 14.3403 19.658 14.532C19.2302 14.75 18.6701 14.75 17.55 14.75H14.75M3.95 20.75H11.55C12.6701 20.75 13.2302 20.75 13.658 20.532C14.0343 20.3403 14.3403 20.0343 14.532 19.658C14.75 19.2302 14.75 18.6701 14.75 17.55V9.95C14.75 8.82989 14.75 8.26984 14.532 7.84202C14.3403 7.46569 14.0343 7.15973 13.658 6.96799C13.2302 6.75 12.6701 6.75 11.55 6.75H3.95C2.8299 6.75 2.26984 6.75 1.84202 6.96799C1.46569 7.15973 1.15973 7.46569 0.967987 7.84202C0.75 8.26984 0.75 8.82989 0.75 9.95V17.55C0.75 18.6701 0.75 19.2302 0.967987 19.658C1.15973 20.0343 1.46569 20.3403 1.84202 20.532C2.26984 20.75 2.82989 20.75 3.95 20.75Z" stroke="currentColor" stroke-width="1.5" stroke-linecap="round" stroke-linejoin="round"/>
</svg>
