<svg width="22" height="16" viewBox="0 0 22 16" fill="none" xmlns="http://www.w3.org/2000/svg">
    <path d="M14.9926 3.57843C17.3358 5.92157 17.3358 9.72056 14.9926 12.0637M6.50736 12.0637C4.16421 9.72053 4.16421 5.92154 6.50736 3.57839M3.67893 14.8921C-0.226311 10.9869 -0.226311 4.65524 3.67893 0.75M17.8211 0.750046C21.7263 4.65529 21.7263 10.9869 17.8211 14.8922M12.75 7.82107C12.75 8.92564 11.8546 9.82107 10.75 9.82107C9.64543 9.82107 8.75 8.92564 8.75 7.82107C8.75 6.7165 9.64543 5.82107 10.75 5.82107C11.8546 5.82107 12.75 6.7165 12.75 7.82107Z" stroke="currentColor" stroke-width="1.5" stroke-linecap="round" stroke-linejoin="round"/>
</svg>
