<svg width="20" height="20" viewBox="0 0 20 20" fill="none" xmlns="http://www.w3.org/2000/svg">
    <path d="M13.7501 6.18191V2.68257C13.7501 1.85083 13.7501 1.43496 13.5749 1.17938C13.4218 0.956093 13.1848 0.804407 12.9179 0.758992C12.6124 0.70701 12.2348 0.881284 11.4796 1.22983L2.60914 5.3239C1.93563 5.63475 1.59887 5.79018 1.35223 6.03123C1.13418 6.24433 0.967739 6.50446 0.865627 6.79174C0.750122 7.1167 0.750122 7.48759 0.750122 8.22937V13.1819M14.2501 12.6819H14.2601M0.750122 9.38191L0.750122 15.9819C0.750122 17.102 0.750122 17.6621 0.968109 18.0899C1.15986 18.4662 1.46582 18.7722 1.84214 18.9639C2.26996 19.1819 2.83002 19.1819 3.95012 19.1819H15.5501C16.6702 19.1819 17.2303 19.1819 17.6581 18.9639C18.0344 18.7722 18.3404 18.4662 18.5321 18.0899C18.7501 17.6621 18.7501 17.102 18.7501 15.9819V9.38191C18.7501 8.26181 18.7501 7.70175 18.5321 7.27393C18.3404 6.89761 18.0344 6.59165 17.6581 6.3999C17.2303 6.18191 16.6702 6.18191 15.5501 6.18191L3.95012 6.18191C2.83002 6.18191 2.26996 6.18191 1.84214 6.3999C1.46582 6.59164 1.15986 6.89761 0.968109 7.27393C0.750122 7.70175 0.750122 8.26181 0.750122 9.38191ZM14.7501 12.6819C14.7501 12.9581 14.5263 13.1819 14.2501 13.1819C13.974 13.1819 13.7501 12.9581 13.7501 12.6819C13.7501 12.4058 13.974 12.1819 14.2501 12.1819C14.5263 12.1819 14.7501 12.4058 14.7501 12.6819Z" stroke="currentColor" stroke-width="1.5" stroke-linecap="round" stroke-linejoin="round"/>
</svg>
