<svg width="20" height="21" viewBox="0 0 20 21" fill="none" xmlns="http://www.w3.org/2000/svg">
    <path d="M6.75006 19.4831V12.0831C6.75006 11.5231 6.75006 11.2431 6.85905 11.0291C6.95493 10.841 7.10791 10.688 7.29607 10.5921C7.50998 10.4831 7.79001 10.4831 8.35006 10.4831H11.1501C11.7101 10.4831 11.9901 10.4831 12.2041 10.5921C12.3922 10.688 12.5452 10.841 12.6411 11.0291C12.7501 11.2431 12.7501 11.5231 12.7501 12.0831V19.4831M8.76776 1.24715L1.98545 6.52228C1.53208 6.8749 1.3054 7.05121 1.14209 7.27201C0.997427 7.4676 0.889663 7.68794 0.824088 7.92221C0.750061 8.18667 0.750061 8.47385 0.750061 9.04821V16.2831C0.750061 17.4032 0.750061 17.9633 0.968048 18.3911C1.15979 18.7674 1.46576 19.0734 1.84208 19.2652C2.2699 19.4831 2.82996 19.4831 3.95006 19.4831H15.5501C16.6702 19.4831 17.2302 19.4831 17.658 19.2652C18.0344 19.0734 18.3403 18.7674 18.5321 18.3911C18.7501 17.9633 18.7501 17.4032 18.7501 16.2831V9.04821C18.7501 8.47385 18.7501 8.18667 18.676 7.92221C18.6105 7.68794 18.5027 7.4676 18.358 7.27201C18.1947 7.05121 17.968 6.8749 17.5147 6.52228L10.7324 1.24715C10.381 0.9739 10.2054 0.837274 10.0114 0.784755C9.84026 0.738415 9.65986 0.738415 9.48871 0.784755C9.29474 0.837274 9.11908 0.9739 8.76776 1.24715Z" stroke="currentColor" stroke-width="1.5" stroke-linecap="round" stroke-linejoin="round"/>
</svg>
