<svg width="19" height="22" viewBox="0 0 19 22" fill="none" xmlns="http://www.w3.org/2000/svg">
    <path fill-rule="evenodd" clip-rule="evenodd" d="M5.55 1.85294e-07H5.5179H5.51788C4.70505 -7.02692e-06 4.04944 -1.28458e-05 3.51853 0.043364C2.9719 0.088026 2.49175 0.182386 2.04754 0.408726C1.34193 0.768251 0.768251 1.34193 0.408726 2.04754C0.182386 2.49175 0.088026 2.9719 0.043364 3.51853C-1.2844e-05 4.04944 -7.02692e-06 4.70505 1.85294e-07 5.51788V5.5179V5.55V15.95V15.9821V15.9821C-7.02692e-06 16.795 -1.28458e-05 17.4506 0.043364 17.9815C0.088026 18.5281 0.182386 19.0082 0.408726 19.4525C0.768251 20.1581 1.34193 20.7317 2.04754 21.0913C2.49175 21.3176 2.97188 21.412 3.51849 21.4566C4.04938 21.5 4.70495 21.5 5.51774 21.5H5.54986H9.25C9.66421 21.5 10 21.1642 10 20.75C10 20.3358 9.66421 20 9.25 20H5.54986C4.69745 20 4.10325 19.9994 3.64065 19.9616C3.1868 19.9245 2.92604 19.8554 2.72852 19.7548C2.30516 19.539 1.96095 19.1948 1.74524 18.7715C1.6446 18.574 1.57547 18.3132 1.53838 17.8593C1.50058 17.3967 1.5 16.8025 1.5 15.95V5.55C1.5 4.69755 1.50058 4.10331 1.53838 3.64068C1.57547 3.18681 1.6446 2.92604 1.74524 2.72852C1.96095 2.30516 2.30516 1.96095 2.72852 1.74524C2.92604 1.6446 3.18681 1.57547 3.64068 1.53838C4.10331 1.50058 4.69755 1.5 5.55 1.5H11.95C12.8025 1.5 13.3967 1.50058 13.8593 1.53838C14.3132 1.57547 14.574 1.6446 14.7715 1.74524C15.1948 1.96095 15.5391 2.30516 15.7548 2.72852C15.8554 2.92604 15.9245 3.18681 15.9616 3.64068C15.9994 4.10331 16 4.69755 16 5.55V11.25C16 11.6642 16.3358 12 16.75 12C17.1642 12 17.5 11.6642 17.5 11.25V5.55V5.51788C17.5 4.70505 17.5 4.04944 17.4566 3.51853C17.412 2.9719 17.3176 2.49175 17.0913 2.04754C16.7318 1.34193 16.1581 0.768251 15.4525 0.408726C15.0082 0.182385 14.5281 0.088026 13.9815 0.043364C13.4506 -1.2844e-05 12.795 -7.02692e-06 11.9821 1.85294e-07H11.9821H11.95H5.55ZM4.75 5C4.33579 5 4 5.33579 4 5.75C4 6.16421 4.33579 6.5 4.75 6.5H12.75C13.1642 6.5 13.5 6.16421 13.5 5.75C13.5 5.33579 13.1642 5 12.75 5H4.75ZM4.75 9C4.33579 9 4 9.33579 4 9.75C4 10.1642 4.33579 10.5 4.75 10.5H10.75C11.1642 10.5 11.5 10.1642 11.5 9.75C11.5 9.33579 11.1642 9 10.75 9H4.75ZM4.75 13C4.33579 13 4 13.3358 4 13.75C4 14.1642 4.33579 14.5 4.75 14.5H6.75C7.16421 14.5 7.5 14.1642 7.5 13.75C7.5 13.3358 7.16421 13 6.75 13H4.75ZM17.75 18.5C18.1642 18.5 18.5 18.1642 18.5 17.75C18.5 17.3358 18.1642 17 17.75 17H13.5607L15.2803 15.2803C15.5732 14.9874 15.5732 14.5126 15.2803 14.2197C14.9874 13.9268 14.5126 13.9268 14.2197 14.2197L11.2197 17.2197C10.9268 17.5126 10.9268 17.9874 11.2197 18.2803L14.2197 21.2803C14.5126 21.5732 14.9874 21.5732 15.2803 21.2803C15.5732 20.9874 15.5732 20.5126 15.2803 20.2197L13.5607 18.5H17.75Z" fill="currentColor"/>
</svg>
