<svg width="16" height="16" viewBox="0 0 16 16" fill="none" xmlns="http://www.w3.org/2000/svg">
    <path fill-rule="evenodd" clip-rule="evenodd" d="M15.2398 8.98182C15.7559 8.46576 16.0207 7.74997 15.9647 7.02231L15.628 2.64498C15.5334 1.41554 14.5565 0.438663 13.3271 0.34409L8.94975 0.00737247C8.22209 -0.0486011 7.5063 0.216187 6.99024 0.732242L0.732233 6.99025C-0.244078 7.96656 -0.244078 9.54947 0.732233 10.5258L5.44628 15.2398C6.42259 16.2161 8.0055 16.2161 8.98181 15.2398L15.2398 8.98182ZM10.1604 4.04399C9.67228 4.53215 9.67228 5.3236 10.1604 5.81176C10.6486 6.29991 11.44 6.29991 11.9282 5.81176C12.4164 5.3236 12.4164 4.53215 11.9282 4.04399C11.44 3.55584 10.6486 3.55584 10.1604 4.04399ZM6.62497 11.7043L4.26795 9.34729C3.94251 9.02186 3.94251 8.49422 4.26795 8.16878C4.59338 7.84334 5.12102 7.84334 5.44646 8.16878L7.80348 10.5258C8.12892 10.8512 8.12892 11.3789 7.80348 11.7043C7.47804 12.0298 6.9504 12.0298 6.62497 11.7043Z" fill="#666563"/>
</svg>
