<svg width="17" height="14" viewBox="0 0 17 14" fill="none" xmlns="http://www.w3.org/2000/svg">
    <path fill-rule="evenodd" clip-rule="evenodd" d="M0.833333 5C0.373096 5 0 5.3731 0 5.83333V10.8333C0 12.214 1.11929 13.3333 2.5 13.3333H14.1667C15.5474 13.3333 16.6667 12.214 16.6667 10.8333V5.83333C16.6667 5.3731 16.2936 5 15.8333 5H0.833333ZM2.5 8.33333C2.03976 8.33333 1.66667 8.70643 1.66667 9.16667C1.66667 9.6269 2.03976 10 2.5 10H7.5C7.96024 10 8.33333 9.6269 8.33333 9.16667C8.33333 8.70643 7.96024 8.33333 7.5 8.33333H2.5Z" fill="currentColor"/>
    <path d="M0 2.5C0 1.11929 1.11929 0 2.5 0H14.1667C15.5474 0 16.6667 1.11929 16.6667 2.5C16.6667 2.96024 16.2936 3.33333 15.8333 3.33333H0.833333C0.373096 3.33333 0 2.96024 0 2.5Z" fill="currentColor"/>
</svg>
